<svg width="24" height="24" viewBox="0 0 24 24" fill="none" xmlns="http://www.w3.org/2000/svg">
<path fill-rule="evenodd" clip-rule="evenodd" d="M13.7143 4.28655C13.7143 4.36918 13.7084 4.45044 13.6971 4.52995C16.1842 5.262 17.9998 7.56195 18 10.286H18V14.6832L20.3651 17.4425C20.6732 17.8019 20.6316 18.343 20.2721 18.6511C19.9127 18.9592 19.3716 18.9175 19.0635 18.5581L16.4921 15.5581C16.3535 15.3964 16.2856 15.1978 16.2857 15.0003V10.2861H16.2857C16.2855 7.91939 14.3668 6.00084 12 6.00084C9.63326 6.00084 7.71459 7.91932 7.71429 10.286H7.7143V14.9933C7.71602 15.1931 7.64824 15.3945 7.50797 15.5581L4.93654 18.5581C4.62846 18.9175 4.08735 18.9592 3.72793 18.6511C3.3685 18.343 3.32688 17.8019 3.63496 17.4425L6.00002 14.6832V10.2861H6C6.00019 7.56203 7.81577 5.26202 10.3029 4.52995C10.2916 4.45044 10.2857 4.36918 10.2857 4.28655C10.2857 3.33978 11.0532 2.57227 12 2.57227C12.9468 2.57227 13.7143 3.33978 13.7143 4.28655Z" fill="#61C680"/>
<path d="M10.2857 19.7154C10.2857 20.1701 10.4663 20.6061 10.7878 20.9276C11.1093 21.2491 11.5453 21.4297 11.9999 21.4297C12.4546 21.4297 12.8906 21.2491 13.2121 20.9276C13.5336 20.6061 13.7142 20.1701 13.7142 19.7154L11.9999 19.7154L10.2857 19.7154Z" fill="#61C680"/>
<path fill-rule="evenodd" clip-rule="evenodd" d="M3.42859 18.0017C3.42859 17.5283 3.81234 17.1445 4.28573 17.1445H19.7143C20.1877 17.1445 20.5714 17.5283 20.5714 18.0017C20.5714 18.4751 20.1877 18.8588 19.7143 18.8588H4.28573C3.81234 18.8588 3.42859 18.4751 3.42859 18.0017Z" fill="#61C680"/>
<path fill-rule="evenodd" clip-rule="evenodd" d="M4.50413 20.8567C4.15135 20.541 4.12124 19.9992 4.43689 19.6464L17.8652 4.63822C18.1809 4.28543 18.7228 4.25533 19.0756 4.57098C19.4284 4.88663 19.4585 5.42851 19.1428 5.7813L5.71445 20.7895C5.3988 21.1422 4.85692 21.1723 4.50413 20.8567Z" fill="#61C680"/>
</svg>
