<svg width="24" height="24" viewBox="0 0 24 24" fill="none" xmlns="http://www.w3.org/2000/svg">
<path fill-rule="evenodd" clip-rule="evenodd" d="M13.7143 4.2846C13.7143 4.36723 13.7085 4.44849 13.6972 4.52799C16.1844 5.2601 18 7.56032 18 10.2846V10.2852H16.2857V10.2846C16.2857 7.91766 14.367 5.99888 12 5.99888C9.6331 5.99888 7.71432 7.91766 7.71432 10.2846V10.2852H6.00003V10.2846C6.00003 7.56032 7.81567 5.2601 10.3029 4.52799C10.2916 4.44849 10.2857 4.36723 10.2857 4.2846C10.2857 3.33782 11.0533 2.57031 12 2.57031C12.9468 2.57031 13.7143 3.33782 13.7143 4.2846ZM7.71443 10.286V14.9933C7.71614 15.1931 7.64836 15.3945 7.50809 15.5581L4.93666 18.5581C4.62858 18.9175 4.08747 18.9592 3.72805 18.6511C3.36863 18.343 3.327 17.8019 3.63508 17.4425L6.00014 14.6832V10.286H7.71443ZM16.2859 10.286V15.0003C16.2858 15.1978 16.3536 15.3964 16.4922 15.5581L19.0637 18.5581C19.3717 18.9175 19.9128 18.9592 20.2723 18.6511C20.6317 18.343 20.6733 17.8019 20.3652 17.4425L18.0001 14.6832V10.286H16.2859Z" fill="#61C680"/>
<path d="M10.2858 19.7134C10.2858 20.1681 10.4664 20.6041 10.7879 20.9256C11.1094 21.2471 11.5454 21.4277 12.0001 21.4277C12.4547 21.4277 12.8908 21.2471 13.2123 20.9256C13.5337 20.6041 13.7144 20.1681 13.7144 19.7134L12.0001 19.7134L10.2858 19.7134Z" fill="#61C680"/>
<path fill-rule="evenodd" clip-rule="evenodd" d="M3.42871 17.9997C3.42871 17.5263 3.81247 17.1426 4.28585 17.1426H19.7144C20.1878 17.1426 20.5716 17.5263 20.5716 17.9997C20.5716 18.4731 20.1878 18.8569 19.7144 18.8569H4.28585C3.81247 18.8569 3.42871 18.4731 3.42871 17.9997Z" fill="#61C680"/>
</svg>
