<svg width="24" height="24" viewBox="0 0 24 24" fill="none" xmlns="http://www.w3.org/2000/svg">
<path fill-rule="evenodd" clip-rule="evenodd" d="M19.0328 12.3197L17.0794 10.8524C16.6378 10.5207 16.5487 9.89379 16.8804 9.45221C17.2121 9.01062 17.839 8.92154 18.2806 9.25323L21.2032 11.4486C21.7895 11.889 21.7921 12.7756 21.1936 13.2148L18.2719 15.3588L17.68 14.5528L17.0884 13.7466L19.0328 12.3197ZM16.8737 15.1444C16.547 14.6992 16.6431 14.0733 17.0884 13.7466L17.68 14.5528L18.2719 15.3588C17.8267 15.6855 17.2005 15.5897 16.8737 15.1444Z" fill="#61C680"/>
<path fill-rule="evenodd" clip-rule="evenodd" d="M11.8003 12.3027C11.8003 11.7504 12.248 11.3027 12.8003 11.3027H20.5049C21.0572 11.3027 21.5049 11.7504 21.5049 12.3027C21.5049 12.855 21.0572 13.3027 20.5049 13.3027H12.8003C12.248 13.3027 11.8003 12.855 11.8003 12.3027Z" fill="#61C680"/>
<path fill-rule="evenodd" clip-rule="evenodd" d="M4.5 5.42969C4.5 4.32512 5.39543 3.42969 6.5 3.42969H15.0922C16.1968 3.42969 17.0922 4.32512 17.0922 5.42969V7.01093C17.0922 7.56322 16.6445 8.01093 16.0922 8.01093C15.5399 8.01093 15.0922 7.56322 15.0922 7.01093V5.42969H6.5V18.5702H15.0922V17.0391C15.0922 16.4868 15.5399 16.0391 16.0922 16.0391C16.6445 16.0391 17.0922 16.4868 17.0922 17.0391V18.5702C17.0922 19.6748 16.1968 20.5702 15.0922 20.5702H6.5C5.39543 20.5702 4.5 19.6748 4.5 18.5702V5.42969Z" fill="#61C680"/>
</svg>
