<svg width="42" height="38" viewBox="0 0 42 38" fill="none" xmlns="http://www.w3.org/2000/svg">
<path d="M27.2692 3.48557C29.864 3.48557 31.9781 5.41064 31.9781 7.77339C31.9781 10.1361 29.8681 12.0612 27.2692 12.0612C25.9209 12.0612 24.6336 11.5308 23.7375 10.6035C23.4401 10.2956 23.0083 10.1176 22.5602 10.1176C22.1122 10.1176 21.6804 10.2956 21.383 10.6035C20.4868 11.5308 19.1996 12.0612 17.8513 12.0612C16.503 12.0612 15.2158 11.5308 14.3196 10.6035C14.0222 10.2956 13.5904 10.1176 13.1424 10.1176C12.6902 10.1176 12.2625 10.2956 11.9651 10.6035C11.069 11.5308 9.78174 12.0612 8.43342 12.0612C5.83861 12.0612 3.72447 10.1361 3.72447 7.77339C3.72447 5.41064 5.83861 3.48557 8.43342 3.48557C9.78174 3.48557 11.069 4.01598 11.9651 4.94328C12.2625 5.25114 12.6943 5.42918 13.1424 5.42918C13.5945 5.42918 14.0222 5.25114 14.3196 4.94328C15.2158 4.01598 16.503 3.48557 17.8513 3.48557C19.1996 3.48557 20.4868 4.01598 21.383 4.94328C21.6804 5.25114 22.1122 5.42918 22.5602 5.42918C23.0083 5.42918 23.4401 5.25114 23.7375 4.94328C24.6377 4.01969 25.9249 3.48557 27.2692 3.48557ZM27.2692 0.640625C25.5583 0.640625 23.9086 1.15249 22.5602 2.07979C21.2119 1.15249 19.5622 0.640625 17.8513 0.640625C16.1404 0.640625 14.4907 1.15249 13.1424 2.07979C11.794 1.15249 10.1443 0.640625 8.43342 0.640625C4.11553 0.640625 0.600115 3.84165 0.600115 7.77339C0.600115 11.7051 4.11553 14.9061 8.43342 14.9061C10.1443 14.9061 11.794 14.3943 13.1424 13.467C14.4907 14.3943 16.1404 14.9061 17.8513 14.9061C19.5622 14.9061 21.2119 14.3943 22.5602 13.467C23.9086 14.3943 25.5583 14.9061 27.2692 14.9061C31.5871 14.9061 35.1025 11.7051 35.1025 7.77339C35.1025 3.84165 31.5911 0.640625 27.2692 0.640625Z" fill="#61C680"/>
<path d="M29.6154 14.5826C31.0085 16.5485 31.9821 19.1486 31.9821 22.0677C31.9821 29.9906 26.6784 33.0321 22.5642 34.2005V29.0039C24.8331 28.3622 25.7048 26.3555 25.7048 24.9275C25.7048 24.1375 25.0001 23.4883 24.1365 23.4883C23.2689 23.4883 22.5682 24.1189 22.5682 24.909C22.5519 25.5692 22.2627 26.3555 21 26.3555C19.7372 26.3555 19.448 25.5729 19.4317 24.9127C19.4235 24.13 18.7229 23.4995 17.8634 23.4995C16.9957 23.4995 16.2951 24.1412 16.2951 24.9275C16.2951 26.3593 17.1627 28.3622 19.4357 29.0039V34.8236C18.5599 34.9238 17.9774 34.9312 17.8674 34.9312H8.43734C7.56969 34.9312 6.86905 35.5729 6.86905 36.3592C6.86905 37.1493 7.56969 37.7873 8.43734 37.7873H17.8552C18.0263 37.7873 35.1227 37.6092 35.1227 22.064C35.1227 21.5707 35.1023 21.0959 35.0697 20.636H36.6951C37.2572 20.636 37.9008 20.521 38.5281 20.2947C38.5852 20.2762 38.6422 20.2539 38.6951 20.2317C38.9029 20.1501 39.1066 20.0499 39.3062 19.9387C39.3673 19.9053 39.4243 19.8719 39.4813 19.8348C39.6809 19.7124 39.8683 19.5677 40.0475 19.412C40.072 19.3897 40.0924 19.3712 40.1168 19.3489C40.3082 19.1746 40.4834 18.978 40.6382 18.7591C40.7971 18.5403 40.9315 18.3029 41.0455 18.0396V18.0358C41.1515 17.7873 41.2411 17.524 41.2981 17.2347C41.3022 17.2235 41.2981 17.2124 41.3022 17.2013C41.3551 16.9305 41.3999 16.656 41.3999 16.3445C41.3999 16.0292 41.3511 15.751 41.3022 15.4765C41.3022 15.4691 41.3022 15.4617 41.2981 15.458C41.2411 15.1686 41.1515 14.9016 41.0455 14.6531V14.6494C40.9356 14.3897 40.8011 14.156 40.6463 13.9409C40.6423 13.9335 40.6382 13.9261 40.6341 13.9224C40.4834 13.7184 40.3205 13.5292 40.1412 13.3623C40.1005 13.3252 40.0598 13.2881 40.019 13.2547C39.8642 13.1212 39.7054 12.9988 39.5343 12.8875C39.4406 12.8282 39.3428 12.7725 39.2451 12.7169C39.0984 12.6353 38.9518 12.5648 38.797 12.498C38.687 12.4535 38.577 12.409 38.463 12.3719C38.2511 12.2977 38.0434 12.2421 37.8316 12.1976C37.7827 12.1865 37.7379 12.1753 37.6931 12.1679C37.3468 12.1012 37.0087 12.0566 36.6991 12.0566H33.4689C32.4424 13.3326 31.1999 13.8222 29.6154 14.5826ZM36.6706 14.9201C37.3957 14.9387 38.2593 15.1983 38.2593 16.3482C38.2593 17.498 37.3957 17.7614 36.691 17.7762H34.6217C34.361 16.7302 34.0066 15.7807 33.5789 14.9164L36.6706 14.9201Z" fill="#61C680"/>
<path d="M13.1464 19.2087C13.1464 18.4186 12.4458 17.7695 11.5781 17.7695C10.7105 17.7695 10.0098 18.4001 10.0098 19.1901C9.99352 19.8504 9.7043 20.6367 8.44152 20.6367C7.17874 20.6367 6.88953 19.8541 6.87323 19.1939C6.86509 18.4112 6.16445 17.7807 5.30494 17.7807C4.43729 17.7807 3.73665 18.4223 3.73665 19.2087C3.73665 20.9335 4.99128 23.4965 8.4456 23.4965C11.8918 23.4965 13.1464 20.9335 13.1464 19.2087Z" fill="#61C680"/>
</svg>
