<svg width="28" height="28" viewBox="0 0 28 28" fill="none" xmlns="http://www.w3.org/2000/svg">
<rect x="3" y="3" width="22" height="22" rx="11" fill="#CCCCCC"/>
<path d="M14.7643 19.347L14.7643 10.2873L18.0949 13.0602C18.2509 13.1899 18.452 13.2522 18.654 13.2336C18.856 13.215 19.0423 13.1169 19.172 12.9609C19.3016 12.8049 19.364 12.6038 19.3454 12.4018C19.3268 12.1998 19.2287 12.0135 19.0727 11.8838L14.4893 8.06437C14.4529 8.03867 14.4146 8.01569 14.3748 7.99562C14.3366 7.99562 14.3136 7.99562 14.2755 7.94214C14.1879 7.90752 14.0946 7.88939 14.0005 7.88867C13.9063 7.88939 13.813 7.90752 13.7255 7.94214C13.6873 7.94214 13.6643 7.94214 13.6261 7.99562C13.5863 8.01569 13.548 8.03867 13.5116 8.06437L8.92823 11.8838C8.842 11.9556 8.77266 12.0456 8.72513 12.1472C8.6776 12.2489 8.65305 12.3598 8.65323 12.472C8.65288 12.6505 8.71504 12.8235 8.82893 12.9609C8.89305 13.0382 8.97181 13.1022 9.06069 13.149C9.14956 13.1959 9.24681 13.2248 9.34686 13.234C9.44692 13.2432 9.5478 13.2326 9.64375 13.2028C9.7397 13.173 9.82882 13.1245 9.90601 13.0602L13.2366 10.2873L13.2366 19.347C13.2366 19.5496 13.317 19.7439 13.4603 19.8872C13.6036 20.0304 13.7979 20.1109 14.0005 20.1109C14.203 20.1109 14.3973 20.0304 14.5406 19.8872C14.6839 19.7439 14.7643 19.5496 14.7643 19.347Z" fill="white"/>
</svg>
