<svg width="28" height="28" viewBox="0 0 28 28" fill="none" xmlns="http://www.w3.org/2000/svg">
<path fill-rule="evenodd" clip-rule="evenodd" d="M16 5C16 5.0964 15.9932 5.1912 15.98 5.28396C18.8818 6.13808 21 8.82167 21 12V17.1301L23.7593 20.3492C24.1187 20.7686 24.0701 21.3999 23.6508 21.7593C23.2315 22.1187 22.6002 22.0701 22.2408 21.6508L19.2408 18.1508C19.079 17.9621 18.9999 17.7305 19 17.5V12C19 9.23858 16.7614 7 14 7C11.2386 7 9 9.23858 9 12V17.492C9.00197 17.7251 8.9229 17.9599 8.75927 18.1508L5.75927 21.6508C5.39985 22.0701 4.76855 22.1187 4.34923 21.7593C3.9299 21.3999 3.88134 20.7686 4.24076 20.3492L7 17.1301V12C7 8.82167 9.11824 6.13808 12.02 5.28396C12.0068 5.1912 12 5.0964 12 5C12 3.89543 12.8954 3 14 3C15.1046 3 16 3.89543 16 5Z" fill="#888888"/>
<path d="M12 23C12 23.5304 12.2107 24.0391 12.5858 24.4142C12.9609 24.7893 13.4696 25 14 25C14.5304 25 15.0391 24.7893 15.4142 24.4142C15.7893 24.0391 16 23.5304 16 23L14 23L12 23Z" fill="#888888"/>
<path fill-rule="evenodd" clip-rule="evenodd" d="M4 21C4 20.4477 4.44772 20 5 20H23C23.5523 20 24 20.4477 24 21C24 21.5523 23.5523 22 23 22H5C4.44772 22 4 21.5523 4 21Z" fill="#888888"/>
<path fill-rule="evenodd" clip-rule="evenodd" d="M5.25476 24.3328C4.84318 23.9645 4.80806 23.3324 5.17632 22.9208L20.8427 5.41126C21.211 4.99967 21.8432 4.96455 22.2548 5.33281C22.6663 5.70107 22.7015 6.33326 22.3332 6.74485L6.6668 24.2544C6.29854 24.6659 5.66635 24.7011 5.25476 24.3328Z" fill="#888888"/>
</svg>
