<svg width="24" height="24" viewBox="0 0 24 24" fill="none" xmlns="http://www.w3.org/2000/svg">
<path fill-rule="evenodd" clip-rule="evenodd" d="M12 7.00785L5.85365 17.8986H18.1464L12 7.00785ZM12.7683 4.73894C12.4268 4.1339 11.5732 4.1339 11.2317 4.73894L3.54877 18.3524C3.2073 18.9574 3.63413 19.7137 4.31706 19.7137H19.683C20.3659 19.7137 20.7927 18.9574 20.4513 18.3524L12.7683 4.73894Z" fill="#61C680"/>
<path d="M12.8572 13.7132C12.8572 14.1866 12.4734 14.5703 12 14.5703C11.5266 14.5703 11.1429 14.1866 11.1429 13.7132L11.1429 11.1417C11.1429 10.6684 11.5266 10.2846 12 10.2846C12.4734 10.2846 12.8572 10.6684 12.8572 11.1417L12.8572 13.7132Z" fill="#61C680"/>
<circle cx="12" cy="16.2854" r="0.857143" transform="rotate(-180 12 16.2854)" fill="#61C680"/>
</svg>
