<svg width="20" height="20" viewBox="0 0 20 20" fill="none" xmlns="http://www.w3.org/2000/svg">
<path fill-rule="evenodd" clip-rule="evenodd" d="M11.4286 3.57115C11.4286 3.64001 11.4238 3.70772 11.4144 3.77398C13.4868 4.38399 14.9997 6.30044 15.0001 8.57031H15V12.2344L16.9709 14.5338C17.2277 14.8333 17.193 15.2842 16.8935 15.5409C16.594 15.7977 16.143 15.763 15.8863 15.4635L13.7434 12.9635C13.6279 12.8287 13.5714 12.6632 13.5715 12.4986V8.57003H13.5715C13.5709 6.5981 11.9721 4.99972 10.0001 4.99972C8.0279 4.99972 6.42909 6.59825 6.42864 8.57031H6.42861V12.4928C6.43002 12.6594 6.37354 12.8271 6.25666 12.9635L4.1138 15.4635C3.85707 15.763 3.40614 15.7977 3.10663 15.5409C2.80711 15.2842 2.77242 14.8333 3.02915 14.5338L5.00003 12.2344V8.57003H5.00007C5.00057 6.30029 6.51344 4.38397 8.58579 3.77398C8.57637 3.70772 8.5715 3.64 8.5715 3.57115C8.5715 2.78217 9.21109 2.14258 10.0001 2.14258C10.789 2.14258 11.4286 2.78217 11.4286 3.57115Z" fill="#CCCCCC"/>
<path d="M8.57157 16.4289C8.57157 16.8077 8.72208 17.1711 8.98999 17.439C9.2579 17.7069 9.62126 17.8574 10.0001 17.8574C10.379 17.8574 10.7424 17.7069 11.0103 17.439C11.2782 17.1711 11.4287 16.8077 11.4287 16.4289L10.0001 16.4289L8.57157 16.4289Z" fill="#CCCCCC"/>
<path fill-rule="evenodd" clip-rule="evenodd" d="M2.85718 14.9994C2.85718 14.605 3.17697 14.2852 3.57146 14.2852H16.4286C16.8231 14.2852 17.1429 14.605 17.1429 14.9994C17.1429 15.3939 16.8231 15.7137 16.4286 15.7137H3.57146C3.17697 15.7137 2.85718 15.3939 2.85718 14.9994Z" fill="#CCCCCC"/>
<path fill-rule="evenodd" clip-rule="evenodd" d="M3.75351 17.3806C3.45952 17.1175 3.43443 16.666 3.69747 16.372L14.8878 3.86518C15.1508 3.57119 15.6024 3.54611 15.8964 3.80915C16.1904 4.07219 16.2154 4.52376 15.9524 4.81775L4.7621 17.3245C4.49906 17.6185 4.0475 17.6436 3.75351 17.3806Z" fill="#CCCCCC"/>
</svg>
