<svg width="24" height="24" viewBox="0 0 24 24" fill="none" xmlns="http://www.w3.org/2000/svg">
<path fill-rule="evenodd" clip-rule="evenodd" d="M15.1168 9.65983C15.1168 10.4865 14.7884 11.2793 14.2039 11.8638C13.6193 12.4483 12.8266 12.7767 11.9999 12.7767C11.1733 12.7767 10.3805 12.4483 9.79596 11.8638C9.21144 11.2793 8.88306 10.4865 8.88306 9.65983C8.88306 8.83318 9.21144 8.0404 9.79596 7.45588C10.3805 6.87135 11.1733 6.54297 11.9999 6.54297C12.8266 6.54297 13.6193 6.87135 14.2039 7.45588C14.7884 8.0404 15.1168 8.83318 15.1168 9.65983ZM13.5583 9.65983C13.5583 10.0731 13.3942 10.4695 13.1019 10.7618C12.8096 11.0541 12.4132 11.2183 11.9999 11.2183C11.5866 11.2183 11.1902 11.0541 10.8979 10.7618C10.6057 10.4695 10.4415 10.0731 10.4415 9.65983C10.4415 9.24651 10.6057 8.85011 10.8979 8.55785C11.1902 8.26559 11.5866 8.1014 11.9999 8.1014C12.4132 8.1014 12.8096 8.26559 13.1019 8.55785C13.3942 8.85011 13.5583 9.24651 13.5583 9.65983Z" fill="#61C680"/>
<path fill-rule="evenodd" clip-rule="evenodd" d="M11.9998 3.42773C7.2661 3.42773 3.42847 7.26537 3.42847 11.9991C3.42847 16.7328 7.2661 20.5705 11.9998 20.5705C16.7336 20.5705 20.5712 16.7328 20.5712 11.9991C20.5712 7.26537 16.7336 3.42773 11.9998 3.42773ZM4.9869 11.9991C4.9869 13.6277 5.54248 15.1269 6.47364 16.3175C7.12758 15.4587 7.97121 14.7628 8.93863 14.284C9.90605 13.8052 10.9711 13.5566 12.0505 13.5575C13.1159 13.5565 14.1675 13.7987 15.1252 14.2657C16.0829 14.7326 16.9213 15.412 17.5767 16.252C18.2518 15.3665 18.7064 14.333 18.9028 13.2369C19.0992 12.1409 19.0318 11.0138 18.7061 9.94897C18.3805 8.88413 17.8059 7.91215 17.03 7.11345C16.2541 6.31474 15.2992 5.71228 14.2443 5.35591C13.1893 4.99953 12.0647 4.89949 10.9634 5.06406C9.86207 5.22863 8.81579 5.65309 7.91111 6.3023C7.00642 6.95151 6.26934 7.80682 5.76083 8.79745C5.25233 9.78809 4.98704 10.8856 4.9869 11.9991ZM11.9998 19.012C10.3899 19.0144 8.82863 18.4606 7.58012 17.4442C8.08266 16.7248 8.75154 16.1374 9.52987 15.7321C10.3082 15.3267 11.1729 15.1153 12.0505 15.116C12.9171 15.1153 13.7714 15.3213 14.5423 15.7171C15.3133 16.1128 15.9788 16.6867 16.4834 17.3913C15.2252 18.4406 13.6382 19.0143 11.9998 19.012Z" fill="#61C680"/>
</svg>
