<svg width="30" height="30" viewBox="0 0 30 30" fill="none" xmlns="http://www.w3.org/2000/svg">
<path fill-rule="evenodd" clip-rule="evenodd" d="M20.5858 14.364H15V14.364H7C6.44772 14.364 6 14.8117 6 15.364C6 15.9163 6.44772 16.364 7 16.364H15C15.0035 16.364 15.007 16.364 15.0104 16.364H20.5858L15.9289 21.0208C15.5384 21.4113 15.5384 22.0445 15.9289 22.435C16.3195 22.8256 16.9526 22.8256 17.3431 22.435L23.7071 16.0711C24.0976 15.6805 24.0976 15.0474 23.7071 14.6569L17.3431 8.29289C16.9526 7.90237 16.3195 7.90237 15.9289 8.29289C15.5384 8.68342 15.5384 9.31658 15.9289 9.70711L20.5858 14.364Z" fill="#61C680"/>
<circle r="14" transform="matrix(-1 0 0 1 15 15)" stroke="#61C680" stroke-width="2"/>
</svg>
