<svg fill="none" height="7" viewBox="0 0 8 7" width="8" xmlns="http://www.w3.org/2000/svg"><path d="m7.96897.279578-4.31972 6.428092c-.06037.09044-.13996.16413-.23217.21497s-.19438.07736-.29805.07736c-.10366 0-.20584-.02652-.29804-.07736-.09221-.05084-.1718-.12453-.23218-.21497l-2.557783-3.80402c-.0779436-.11668 0-.27958.133325-.27958h.961988c.20922 0 .40818.10787.53125.29279l1.46042 2.17498 3.2244-4.799054c.12307-.182716.31998-.292786.53125-.292786h.96199c.13332 0 .21127.162904.13332.279578z" fill="#5c88da"/></svg>