<svg width="28" height="28" viewBox="0 0 28 28" fill="none" xmlns="http://www.w3.org/2000/svg">
<path fill-rule="evenodd" clip-rule="evenodd" d="M14 24C19.5228 24 24 19.5228 24 14C24 8.47715 19.5228 4 14 4C8.47715 4 4 8.47715 4 14C4 19.5228 8.47715 24 14 24ZM12.1728 17.7099C12.1407 17.6784 12.1113 17.6453 12.0845 17.6108L12.0783 17.617L9.06527 14.6493L9.06528 14.6493L8.31201 13.9073C7.896 13.4976 7.896 12.8332 8.31201 12.4235C8.72803 12.0137 9.40252 12.0137 9.81853 12.4235L12.8316 15.3912L12.8356 15.3951L12.9668 15.5244L18.2805 10.2907C18.674 9.90311 19.3119 9.90311 19.7054 10.2907C20.0988 10.6782 20.0988 11.3066 19.7054 11.6941L13.5976 17.7099C13.2042 18.0975 12.5662 18.0975 12.1728 17.7099Z" fill="#61C680"/>
</svg>
