<svg width="28" height="28" viewBox="0 0 28 28" fill="none" xmlns="http://www.w3.org/2000/svg">
<path fill-rule="evenodd" clip-rule="evenodd" d="M24 14C24 19.5228 19.5228 24 14 24C8.47715 24 4 19.5228 4 14C4 8.47715 8.47715 4 14 4C19.5228 4 24 8.47715 24 14ZM13 13C13 12.4477 13.4477 12 14 12C14.5523 12 15 12.4477 15 13V19C15 19.5523 14.5523 20 14 20C13.4477 20 13 19.5523 13 19V13ZM14 10C14.5523 10 15 9.55229 15 9C15 8.44771 14.5523 8 14 8C13.4477 8 13 8.44771 13 9C13 9.55229 13.4477 10 14 10Z" fill="#61C680"/>
</svg>
