<svg fill="none" height="28" viewBox="0 0 28 28" width="28" xmlns="http://www.w3.org/2000/svg"><path clip-rule="evenodd" d="m14 24c5.5228 0 10-4.4772 10-10 0-5.52285-4.4772-10-10-10-5.52285 0-10 4.47715-10 10 0 5.5228 4.47715 10 10 10zm-1-15.14289v.00016 4.14273h-4.14273-.00016c-.47337 0-.85711.4477-.85711 1s.38374 1 .85711 1h.00016 4.14273v4.1426c0 .4734.4477.8571 1 .8571s1-.3837 1-.8571v-4.1426h4.1426c.4734 0 .8571-.4477.8571-1s-.3837-1-.8571-1h-4.1426v-4.14273-.00016c0-.47337-.4477-.85711-1-.85711s-1 .38374-1 .85711z" fill="#61c680" fill-rule="evenodd"/></svg>