<svg width="987" height="389" viewBox="0 0 987 389" fill="none" xmlns="http://www.w3.org/2000/svg">
<path d="M819.163 222.748H858.987L902.022 327.875H903.735L946.771 222.748H986.595V377.762H955.335V276.275H954.051L913.584 377.12H892.174L851.707 275.847H850.422V377.762H819.163V222.748Z" fill="#61C680"/>
<path d="M687.7 377.762H653.015L706.756 222.748H748.079L801.606 377.762H767.134L755.465 342.006H699.369L687.7 377.762ZM707.505 316.955H747.329L727.952 257.647H726.882L707.505 316.955Z" fill="#61C680"/>
<path d="M571.439 377.762H516.842V222.748H572.082C618.757 222.748 647.341 251.76 647.234 300.041C647.341 348.536 618.757 377.762 571.439 377.762ZM548.958 350.142H570.155C599.702 350.142 615.117 334.834 615.117 300.041C615.117 265.569 599.702 250.368 570.369 250.368H548.958V350.142Z" fill="#61C680"/>
<path d="M385.379 377.762H350.694L404.435 222.748H445.758L499.285 377.762H464.813L453.145 342.006H397.048L385.379 377.762ZM405.184 316.955H445.008L425.632 257.647H424.561L405.184 316.955Z" fill="#61C680"/>
<path d="M309.157 267.068C307.872 254.757 298.13 247.584 282.393 247.584C266.121 247.584 257.021 255.078 256.914 265.355C256.807 276.596 268.369 281.628 281.751 284.625L295.668 288.051C322.217 294.153 342.022 307.642 342.129 333.442C342.022 361.811 319.969 380.01 282.179 379.903C244.71 380.01 220.837 362.668 219.874 329.374H251.133C252.204 345.004 264.622 352.926 281.751 352.926C298.665 352.926 309.585 345.004 309.585 333.442C309.585 322.843 299.95 317.919 283.036 313.744L266.121 309.676C240 303.253 223.942 290.192 223.942 267.496C223.835 239.341 248.671 220.607 282.607 220.607C316.972 220.607 339.56 239.662 339.988 267.068H309.157Z" fill="#61C680"/>
<path fill-rule="evenodd" clip-rule="evenodd" d="M0 212.614H175.408V249.158H36.5434V351.479H175.408V388.023H0V212.614Z" fill="#61C680"/>
<path fill-rule="evenodd" clip-rule="evenodd" d="M175.408 0.662643L175.408 176.071L138.865 176.071L138.865 37.206L36.5435 37.206L36.5435 176.071L9.91442e-05 176.071L0.000106812 0.662636L175.408 0.662643Z" fill="#61C680"/>
</svg>
