<svg width="145" height="105" viewBox="0 0 145 105" fill="none" xmlns="http://www.w3.org/2000/svg">
<path d="M102.5 20H102.495C104.07 22.09 105 24.69 105 27.5C105 30.31 104.065 32.91 102.495 35H102.5H107.5C110.515 35 115 36.995 115 42.5C115 48.005 110.515 50 107.5 50H104.915C104.97 50.81 105 51.64 105 52.5C105 79.685 77.775 80 77.5 80H62.5C61.12 80 60 78.88 60 77.5C60 76.12 61.12 75 62.5 75H77.5C77.675 75 78.61 74.985 80 74.81V64.635C76.385 63.515 75 60.005 75 57.5C75 56.12 76.12 55 77.5 55C78.87 55 79.985 56.105 80 57.475C80.03 58.63 80.49 60 82.5 60C84.515 60 84.97 58.625 85 57.47C85 56.09 86.12 54.985 87.5 54.985C88.88 54.985 90 56.12 90 57.5C90 60.005 88.615 63.51 85 64.635V73.73C91.55 71.685 100 66.36 100 52.505C100 47.24 98.8 42.855 96.445 39.365C95.205 39.77 93.88 40 92.5 40C89.775 40 87.15 39.105 85 37.49C82.85 39.105 80.225 40 77.5 40C74.775 40 72.15 39.105 70 37.49C67.85 39.105 65.225 40 62.5 40C55.605 40 50 34.395 50 27.5C50 20.605 55.605 15 62.5 15C65.225 15 67.85 15.895 70 17.51C72.15 15.895 74.775 15 77.5 15C80.225 15 82.85 15.895 85 17.51C86.365 16.485 87.925 15.75 89.58 15.35C79.81 5.62 66.485 0 52.5 0C23.55 0 0 23.55 0 52.5C0 81.45 23.55 105 52.5 105H102.5C125.935 105 145 85.935 145 62.5C145 39.065 125.935 20 102.5 20ZM37.53 45H42.5C43.88 45 45 46.12 45 47.5C45 48.88 43.88 50 42.5 50H37.5C34.485 50 30 48.005 30 42.5C30 36.995 34.485 35 37.5 35H42.5C43.88 35 45 36.12 45 37.5C45 38.88 43.88 40 42.5 40H37.5C36.375 40.03 35 40.485 35 42.5C35 44.515 36.375 44.97 37.53 45ZM58.23 50.73L60.21 48.75L58.23 46.77C57.255 45.795 57.255 44.21 58.23 43.235C59.205 42.26 60.79 42.26 61.765 43.235L63.745 45.215L65.725 43.235C66.7 42.26 68.285 42.26 69.26 43.235C70.235 44.21 70.235 45.795 69.26 46.77L67.28 48.75L69.26 50.73C70.235 51.705 70.235 53.29 69.26 54.265C68.77 54.755 68.13 54.995 67.49 54.995C66.85 54.995 66.21 54.75 65.72 54.265L63.74 52.285L61.76 54.265C61.27 54.755 60.63 54.995 59.99 54.995C59.35 54.995 58.71 54.75 58.22 54.265C57.255 53.29 57.255 51.71 58.23 50.73Z" fill="#F9423A"/>
<path d="M86.875 23.1683C86.4 23.7043 85.715 24.012 85 24.012C84.285 24.012 83.6 23.7043 83.125 23.1683C81.695 21.5554 79.645 20.6323 77.5 20.6323C75.355 20.6323 73.305 21.5554 71.875 23.1683C71.4 23.7043 70.715 24.012 70 24.012C69.285 24.012 68.6 23.7043 68.125 23.1683C66.695 21.5554 64.645 20.6323 62.5 20.6323C58.365 20.6323 55 23.9723 55 28.0765C55 32.1808 58.365 35.5207 62.5 35.5207C64.645 35.5207 66.695 34.5976 68.125 32.9847C68.6 32.4487 69.285 32.1411 70 32.1411C70.715 32.1411 71.4 32.4487 71.875 32.9847C73.305 34.5976 75.355 35.5207 77.5 35.5207C79.645 35.5207 81.695 34.5976 83.125 32.9847C83.6 32.4487 84.285 32.1411 85 32.1411C85.715 32.1411 86.4 32.4487 86.875 32.9847C88.305 34.5976 90.355 35.5207 92.5 35.5207C96.635 35.5207 100 32.1808 100 28.0765C100 23.9723 96.635 20.6323 92.5 20.6323C90.355 20.6323 88.305 21.5554 86.875 23.1683Z" fill="#F9423A"/>
<path d="M110.001 42.965C110.001 40.965 108.626 40.5134 107.471 40.4836H102.541C103.226 41.9824 103.786 43.635 104.201 45.4464H107.501C108.626 45.4167 110.001 44.965 110.001 42.965Z" fill="#F9423A"/>
</svg>
