<svg width="60" height="55" viewBox="0 0 60 55" fill="none" xmlns="http://www.w3.org/2000/svg">
<path d="M39.2192 4.18374C43.0351 4.18374 46.1441 7.01472 46.1441 10.4894C46.1441 13.964 43.0411 16.795 39.2192 16.795C37.2364 16.795 35.3434 16.0149 34.0255 14.6513C33.5882 14.1985 32.9533 13.9367 32.2943 13.9367C31.6354 13.9367 31.0004 14.1985 30.5631 14.6513C29.2452 16.0149 27.3522 16.795 25.3694 16.795C23.3866 16.795 21.4936 16.0149 20.1757 14.6513C19.7384 14.1985 19.1034 13.9367 18.4445 13.9367C17.7795 13.9367 17.1505 14.1985 16.7132 14.6513C15.3954 16.0149 13.5024 16.795 11.5196 16.795C7.70367 16.795 4.59465 13.964 4.59465 10.4894C4.59465 7.01472 7.70367 4.18374 11.5196 4.18374C13.5024 4.18374 15.3954 4.96376 16.7132 6.32743C17.1505 6.78017 17.7855 7.042 18.4445 7.042C19.1094 7.042 19.7384 6.78017 20.1757 6.32743C21.4936 4.96376 23.3866 4.18374 25.3694 4.18374C27.3522 4.18374 29.2452 4.96376 30.5631 6.32743C31.0004 6.78017 31.6354 7.042 32.2943 7.042C32.9533 7.042 33.5882 6.78017 34.0255 6.32743C35.3494 4.96922 37.2424 4.18374 39.2192 4.18374ZM39.2192 0C36.7033 0 34.2771 0.752746 32.2943 2.11642C30.3115 0.752746 27.8854 0 25.3694 0C22.8534 0 20.4273 0.752746 18.4445 2.11642C16.4617 0.752746 14.0355 0 11.5196 0C5.16972 0 0 4.70739 0 10.4894C0 16.2713 5.16972 20.9787 11.5196 20.9787C14.0355 20.9787 16.4617 20.226 18.4445 18.8623C20.4273 20.226 22.8534 20.9787 25.3694 20.9787C27.8854 20.9787 30.3115 20.226 32.2943 18.8623C34.2771 20.226 36.7033 20.9787 39.2192 20.9787C45.5691 20.9787 50.7388 16.2713 50.7388 10.4894C50.7388 4.70739 45.5751 0 39.2192 0Z" fill="#61C680"/>
<path d="M42.6697 20.5037C44.7185 23.3947 46.1502 27.2184 46.1502 31.5113C46.1502 43.1625 38.3506 47.6353 32.3003 49.3535V41.7115C35.637 40.7678 36.9189 37.8169 36.9189 35.7168C36.9189 34.555 35.8826 33.6004 34.6126 33.6004C33.3367 33.6004 32.3063 34.5277 32.3063 35.6895C32.2824 36.6605 31.857 37.8169 30 37.8169C28.143 37.8169 27.7177 36.6659 27.6937 35.695C27.6817 34.5441 26.6514 33.6168 25.3874 33.6168C24.1114 33.6168 23.0811 34.5604 23.0811 35.7168C23.0811 37.8223 24.357 40.7678 27.6997 41.7115V50.2699C26.4118 50.4172 25.5551 50.4281 25.3934 50.4281H11.5256C10.2496 50.4281 9.21928 51.3718 9.21928 52.5281C9.21928 53.69 10.2496 54.6282 11.5256 54.6282H25.3754C25.627 54.6282 50.7688 54.3664 50.7688 31.5058C50.7688 30.7803 50.7388 30.0821 50.6909 29.4057H53.0811C53.9077 29.4057 54.8542 29.2366 55.7767 28.9039C55.8606 28.8766 55.9445 28.8439 56.0224 28.8112C56.3279 28.6912 56.6274 28.5439 56.9209 28.3803C57.0108 28.3312 57.0946 28.2821 57.1785 28.2275C57.472 28.0475 57.7476 27.8348 58.0112 27.6057C58.0471 27.573 58.0771 27.5457 58.113 27.513C58.3946 27.2566 58.6521 26.9675 58.8798 26.6457C59.1134 26.3238 59.3111 25.9747 59.4788 25.5875V25.582C59.6346 25.2165 59.7664 24.8293 59.8502 24.4038C59.8562 24.3874 59.8502 24.3711 59.8562 24.3547C59.9341 23.9565 60 23.5529 60 23.0947C60 22.631 59.9281 22.2219 59.8562 21.8183C59.8562 21.8074 59.8562 21.7965 59.8502 21.791C59.7664 21.3655 59.6346 20.9728 59.4788 20.6073V20.6019C59.3171 20.2201 59.1194 19.8764 58.8918 19.56C58.8858 19.5491 58.8798 19.5382 58.8738 19.5328C58.6521 19.2328 58.4125 18.9546 58.1489 18.7091C58.089 18.6546 58.0291 18.6 57.9692 18.5509C57.7416 18.3546 57.508 18.1746 57.2564 18.0109C57.1186 17.9236 56.9748 17.8418 56.8311 17.76C56.6154 17.64 56.3997 17.5364 56.1721 17.4382C56.0104 17.3727 55.8486 17.3073 55.6809 17.2527C55.3694 17.1436 55.0639 17.0618 54.7524 16.9963C54.6805 16.98 54.6146 16.9636 54.5487 16.9527C54.0395 16.8545 53.5423 16.7891 53.0871 16.7891H48.3367C46.8271 18.6655 45 19.3855 42.6697 20.5037ZM53.0451 21.0001C54.1114 21.0273 55.3814 21.4092 55.3814 23.1001C55.3814 24.7911 54.1114 25.1784 53.0751 25.2002H50.0319C49.6486 23.662 49.1274 22.2656 48.4984 20.9946L53.0451 21.0001Z" fill="#61C680"/>
<path d="M18.4505 27.3059C18.4505 26.144 17.4202 25.1895 16.1442 25.1895C14.8683 25.1895 13.8379 26.1168 13.8379 27.2786C13.8139 28.2495 13.3886 29.4059 11.5316 29.4059C9.67457 29.4059 9.24925 28.255 9.22529 27.2841C9.21331 26.1331 8.18296 25.2058 6.91898 25.2058C5.64302 25.2058 4.61267 26.1495 4.61267 27.3059C4.61267 29.8423 6.45772 33.6115 11.5376 33.6115C16.6055 33.6115 18.4505 29.8423 18.4505 27.3059Z" fill="#61C680"/>
</svg>
