<svg width="160" height="160" viewBox="0 0 160 160" fill="none" xmlns="http://www.w3.org/2000/svg">
<path d="M95.8621 24.8883C95.3379 25.4841 94.5821 25.8262 93.7931 25.8262C93.0041 25.8262 92.2483 25.4841 91.7241 24.8883C90.1462 23.0952 87.8841 22.069 85.5172 22.069C83.1504 22.069 80.8883 23.0952 79.3104 24.8883C78.7862 25.4841 78.0304 25.8262 77.2414 25.8262C76.4524 25.8262 75.6966 25.4841 75.1724 24.8883C73.5945 23.0952 71.3324 22.069 68.9655 22.069C64.4028 22.069 60.6897 25.7821 60.6897 30.3448C60.6897 34.9076 64.4028 38.6207 68.9655 38.6207C71.3324 38.6207 73.5945 37.5945 75.1724 35.8014C75.6966 35.2055 76.4524 34.8635 77.2414 34.8635C78.0304 34.8635 78.7862 35.2055 79.3104 35.8014C80.8883 37.5945 83.1504 38.6207 85.5172 38.6207C87.8841 38.6207 90.1462 37.5945 91.7241 35.8014C92.2483 35.2055 93.0041 34.8635 93.7931 34.8635C94.5821 34.8635 95.3379 35.2055 95.8621 35.8014C97.44 37.5945 99.7021 38.6207 102.069 38.6207C106.632 38.6207 110.345 34.9076 110.345 30.3448C110.345 25.7821 106.632 22.069 102.069 22.069C99.7021 22.069 97.44 23.0952 95.8621 24.8883Z" fill="white"/>
<path d="M121.379 46.8966C121.379 44.6731 119.862 44.171 118.588 44.1379H113.148C113.903 45.8041 114.521 47.6414 114.979 49.6552H118.621C119.862 49.6221 121.379 49.12 121.379 46.8966Z" fill="white"/>
<path d="M113.103 22.069H113.098C114.836 24.3752 115.862 27.2441 115.862 30.3448C115.862 33.4455 114.83 36.3145 113.098 38.6207H113.103H118.621C121.948 38.6207 126.897 40.8221 126.897 46.8966C126.897 52.971 121.948 55.1724 118.621 55.1724H115.768C115.829 56.0662 115.862 56.9821 115.862 57.931C115.862 87.9283 85.8207 88.2759 85.5172 88.2759H68.9655C67.4428 88.2759 66.2069 87.04 66.2069 85.5173C66.2069 83.9945 67.4428 82.7586 68.9655 82.7586H85.5172C85.7103 82.7586 86.7421 82.7421 88.2759 82.549V71.3214C84.2869 70.0855 82.7586 66.2124 82.7586 63.4483C82.7586 61.9255 83.9945 60.6897 85.5172 60.6897C87.029 60.6897 88.2593 61.909 88.2759 63.4207C88.309 64.6952 88.8166 66.2069 91.0345 66.2069C93.2579 66.2069 93.76 64.6897 93.7931 63.4152C93.7931 61.8924 95.029 60.6731 96.5517 60.6731C98.0745 60.6731 99.3103 61.9255 99.3103 63.4483C99.3103 66.2124 97.7821 70.08 93.7931 71.3214V81.3573C101.021 79.1007 110.345 73.2248 110.345 57.9366C110.345 52.1269 109.021 47.2883 106.422 43.4372C105.054 43.8841 103.592 44.1379 102.069 44.1379C99.0621 44.1379 96.1655 43.1504 93.7931 41.3683C91.4207 43.1504 88.5241 44.1379 85.5172 44.1379C82.5103 44.1379 79.6138 43.1504 77.2414 41.3683C74.869 43.1504 71.9724 44.1379 68.9655 44.1379C61.3572 44.1379 55.1724 37.9531 55.1724 30.3448C55.1724 22.7366 61.3572 16.5517 68.9655 16.5517C71.9724 16.5517 74.869 17.5393 77.2414 19.3214C79.6138 17.5393 82.5103 16.5517 85.5172 16.5517C88.5241 16.5517 91.4207 17.5393 93.7931 19.3214C95.2993 18.1903 97.0207 17.3793 98.8469 16.9379C88.0662 6.20138 73.3628 0 57.931 0C25.9862 0 0 25.9862 0 57.931C0 89.8759 25.9862 115.862 57.931 115.862H113.103C138.963 115.862 160 94.8248 160 68.9655C160 43.1062 138.963 22.069 113.103 22.069ZM41.4124 49.6552H46.8966C48.4193 49.6552 49.6552 50.891 49.6552 52.4138C49.6552 53.9366 48.4193 55.1724 46.8966 55.1724H41.3793C38.0524 55.1724 33.1034 52.971 33.1034 46.8966C33.1034 40.8221 38.0524 38.6207 41.3793 38.6207H46.8966C48.4193 38.6207 49.6552 39.8566 49.6552 41.3793C49.6552 42.9021 48.4193 44.1379 46.8966 44.1379H41.3793C40.1379 44.171 38.6207 44.6731 38.6207 46.8966C38.6207 49.12 40.1379 49.6221 41.4124 49.6552ZM60.6897 52.4138C60.6897 50.891 61.9255 49.6552 63.4483 49.6552C64.96 49.6552 66.1903 50.8745 66.2069 52.3862C66.24 53.6607 66.7476 55.1724 68.9655 55.1724C71.189 55.1724 71.691 53.6552 71.7241 52.3807C71.7241 50.8579 72.96 49.6386 74.4828 49.6386C76.0055 49.6386 77.2414 50.891 77.2414 52.4138C77.2414 55.7407 75.0345 60.6897 68.9655 60.6897C62.8966 60.6897 60.6897 55.7407 60.6897 52.4138Z" fill="white"/>
<path d="M9.49152 138.332H18.8854H20.339C22.5858 138.332 24.4068 136.514 24.4068 134.27C24.4068 132.026 22.5858 130.207 20.339 130.207H9.49152C4.24949 130.207 0 134.451 0 139.687C0 143.565 2.33356 146.898 5.67322 148.366C6.84203 148.879 8.13288 149.166 9.49152 149.166H14.9153C15.6637 149.166 16.2712 149.773 16.2712 150.52C16.2712 151.268 15.6637 151.875 14.9153 151.875H5.52136H4.0678C1.82102 151.875 0 153.693 0 155.937C0 158.181 1.82102 160 4.0678 160H14.9153C20.1573 160 24.4068 155.756 24.4068 150.52C24.4068 146.642 22.0732 143.309 18.7336 141.841C17.5647 141.328 16.2739 141.041 14.9153 141.041H9.49152C8.74305 141.041 8.13559 140.434 8.13559 139.687C8.13559 138.939 8.74305 138.332 9.49152 138.332Z" fill="white"/>
<path d="M154.327 141.841C153.158 141.328 151.867 141.041 150.508 141.041H145.085C144.336 141.041 143.729 140.434 143.729 139.687C143.729 138.939 144.336 138.332 145.085 138.332H154.479H155.932C158.179 138.332 160 136.514 160 134.27C160 132.026 158.179 130.207 155.932 130.207H145.085C139.843 130.207 135.593 134.451 135.593 139.687C135.593 143.565 137.927 146.898 141.266 148.366C142.435 148.879 143.726 149.166 145.085 149.166H150.508C151.257 149.166 151.864 149.773 151.864 150.52C151.864 151.268 151.257 151.875 150.508 151.875H141.115H139.661C137.414 151.875 135.593 153.693 135.593 155.937C135.593 158.181 137.414 160 139.661 160H150.508C155.75 160 160 155.756 160 150.52C160 146.642 157.666 143.309 154.327 141.841Z" fill="white"/>
<path d="M47.4577 130.207C45.2109 130.207 43.3899 132.026 43.3899 134.27V141.041H35.2543V134.27C35.2543 132.026 33.4332 130.207 31.1865 130.207C28.9397 130.207 27.1187 132.026 27.1187 134.27V141.041V149.166V155.937C27.1187 158.181 28.9397 160 31.1865 160C33.4332 160 35.2543 158.181 35.2543 155.937V149.166H43.3899V155.937C43.3899 158.181 45.2109 160 47.4577 160C49.7044 160 51.5254 158.181 51.5254 155.937V149.166V141.041V134.27C51.5254 132.026 49.7044 130.207 47.4577 130.207Z" fill="white"/>
<path d="M74.5762 138.332C76.823 138.332 78.644 136.514 78.644 134.27C78.644 132.026 76.823 130.207 74.5762 130.207H58.305C56.0582 130.207 54.2372 132.026 54.2372 134.27V141.041V149.166V155.937C54.2372 158.181 56.0582 160 58.305 160H74.5762C76.823 160 78.644 158.181 78.644 155.937C78.644 153.693 76.823 151.875 74.5762 151.875H62.3728V149.166H70.5084C72.7552 149.166 74.5762 147.347 74.5762 145.103C74.5762 142.86 72.7552 141.041 70.5084 141.041H62.3728V138.332H74.5762Z" fill="white"/>
<path d="M101.695 138.332C103.942 138.332 105.763 136.514 105.763 134.27C105.763 132.026 103.942 130.207 101.695 130.207H85.4238C83.177 130.207 81.356 132.026 81.356 134.27V141.041V149.166V155.937C81.356 158.181 83.177 160 85.4238 160H101.695C103.942 160 105.763 158.181 105.763 155.937C105.763 153.693 103.942 151.875 101.695 151.875H89.4916V149.166H97.6272C99.874 149.166 101.695 147.347 101.695 145.103C101.695 142.86 99.874 141.041 97.6272 141.041H89.4916V138.332H101.695Z" fill="white"/>
<path d="M123.39 130.207H117.966C112.724 130.207 108.475 134.451 108.475 139.687V155.937C108.475 158.181 110.296 160 112.542 160C114.789 160 116.61 158.181 116.61 155.937V149.069C117.054 149.132 117.505 149.166 117.966 149.166H123.39C128.632 149.166 132.881 144.922 132.881 139.687C132.881 134.451 128.632 130.207 123.39 130.207ZM123.39 141.041H117.966C117.218 141.041 116.61 140.434 116.61 139.687C116.61 138.939 117.218 138.332 117.966 138.332H123.39C124.138 138.332 124.746 138.939 124.746 139.687C124.746 140.434 124.138 141.041 123.39 141.041Z" fill="white"/>
</svg>
