<svg fill="none" height="10" viewBox="0 0 10 10" width="10" xmlns="http://www.w3.org/2000/svg"><g clip-rule="evenodd" fill="#fff" fill-rule="evenodd"><path d="m2.04093.612705 7.34673 7.346725c.00007.00008.00015.00016.00023.00023.33812.33813.29242.93203-.10207 1.32652s-.98839.44019-1.32652.10207c-.00007-.00008-.00015-.00016-.00023-.00023l-7.336184-7.33619-.010633-.01043c-.338124-.33812-.292429-.93203.102063-1.326517.394484-.394488.988384-.440187 1.326504-.102074z"/><path d="m.612223 7.95907 7.346727-7.346731c.00008-.000077.00015-.000153.00023-.00023.33812-.338124.93203-.292429 1.32652.102063.39449.394488.44019.988398.10206 1.326518-.00007.00008-.00015.00015-.00023.00023l-7.33592 7.33592-.01069.01091c-.33813.33813-.93203.29243-1.32652-.10206s-.440187-.98839-.102069-1.32651z"/></g></svg>