<svg width="28" height="28" viewBox="0 0 28 28" fill="none" xmlns="http://www.w3.org/2000/svg">
<path fill-rule="evenodd" clip-rule="evenodd" d="M14 24C19.5228 24 24 19.5228 24 14C24 8.47715 19.5228 4 14 4C8.47715 4 4 8.47715 4 14C4 19.5228 8.47715 24 14 24ZM11.0706 18.3435L11.0708 18.3434L13.9998 15.4143L16.9292 18.3437L16.9292 18.3437C17.264 18.6784 17.8519 18.6331 18.2424 18.2426C18.6329 17.8521 18.6781 17.2642 18.3434 16.9295L18.3434 16.9294L15.414 14.0001L18.3436 11.0706L18.3436 11.0705C18.6783 10.7358 18.633 10.1479 18.2425 9.75738C17.852 9.36686 17.2641 9.32162 16.9294 9.65631L16.9293 9.65634L13.9998 12.5859L11.0706 9.65664L11.0705 9.65653C10.7358 9.32181 10.1478 9.36704 9.75732 9.75757C9.36679 10.1481 9.32156 10.736 9.65628 11.0707L9.65639 11.0709L12.5856 14.0001L9.65654 16.9291L9.65643 16.9293C9.32171 17.264 9.36694 17.8519 9.75747 18.2424C10.148 18.633 10.7359 18.6782 11.0706 18.3435Z" fill="#61C680"/>
</svg>
