<svg width="28" height="28" viewBox="0 0 28 28" fill="none" xmlns="http://www.w3.org/2000/svg">
<path fill-rule="evenodd" clip-rule="evenodd" d="M7.40002 4C7.26195 4 7.13042 4.02798 7.01078 4.07858C6.84546 4.14851 6.70287 4.26162 6.59713 4.40378C6.4733 4.57026 6.40002 4.77657 6.40002 5V22.9858V23C6.40002 23.5523 6.84774 24 7.40002 24C7.72728 24 8.01781 23.8428 8.20025 23.5998L14 17.8L19.7998 23.5998C19.9822 23.8428 20.2727 24 20.6 24C21.1523 24 21.6 23.5523 21.6 23V22.9858V5.00997L21.6 5C21.6 4.44772 21.1523 4 20.6 4H20.6H7.40002Z" fill="#5C88DA"/>
</svg>
