<svg width="16" height="16" viewBox="0 0 16 16" fill="none" xmlns="http://www.w3.org/2000/svg">
<circle cx="8" cy="8" r="8" fill="#5C88DA"/>
<path fill-rule="evenodd" clip-rule="evenodd" d="M6.72834 10.4801C6.73019 10.482 6.73205 10.4838 6.73393 10.4857C7.02903 10.7763 7.50749 10.7763 7.8026 10.4857L11.7777 6.57039C12.0728 6.27973 12.0728 5.80847 11.7777 5.5178C11.4826 5.22714 11.0041 5.22714 10.709 5.5178L7.20801 8.96613L5.71923 7.49975L5.71903 7.49994L5.21481 7.00331C4.93625 6.72894 4.48461 6.72894 4.20605 7.00331C3.92749 7.27767 3.92749 7.72251 4.20605 7.99688L6.22356 9.98403L6.23797 9.99783L6.72798 10.4805L6.72834 10.4801Z" fill="white"/>
</svg>
