<svg width="28" height="28" viewBox="0 0 28 28" fill="none" xmlns="http://www.w3.org/2000/svg">
<rect x="8" y="5" width="12" height="12" fill="white"/>
<path d="M7.40032 21.8475L8.18243 13.4621L14.4173 17.1904L7.40032 21.8475Z" fill="white"/>
<path d="M20.4096 21.0732L19.7467 13.2825L13.8601 16.8025L20.4096 21.0732Z" fill="white"/>
<path fill-rule="evenodd" clip-rule="evenodd" d="M7.01078 4.07858C7.13042 4.02798 7.26195 4 7.40002 4H20.6H20.6C21.1523 4 21.6 4.44772 21.6 5L21.6 5.00997V22.9858V23C21.6 23.5523 21.1523 24 20.6 24C20.2727 24 19.9822 23.8428 19.7998 23.5998L14 17.8L8.20025 23.5998C8.01781 23.8428 7.72728 24 7.40002 24C6.84774 24 6.40002 23.5523 6.40002 23V22.9858V5C6.40002 4.77657 6.4733 4.57026 6.59713 4.40378C6.70287 4.26162 6.84546 4.14851 7.01078 4.07858ZM14 15.4001C14.2606 15.3964 14.5224 15.494 14.7213 15.6929L19.6 20.5716V6H8.40002L8.40002 20.5716L13.2787 15.6929C13.4776 15.4941 13.7394 15.3965 14 15.4001Z" fill="#CCCCCC"/>
</svg>
