<svg width="96" height="96" viewBox="0 0 96 96" fill="none" xmlns="http://www.w3.org/2000/svg">
<g filter="url(#filter0_d)">
<circle cx="48" cy="48" r="40" fill="#61C680"/>
<path d="M60.6046 26.3198C64.1661 26.3198 67.0679 28.9722 67.0679 32.2276C67.0679 35.4831 64.1717 38.1355 60.6046 38.1355C58.754 38.1355 56.9872 37.4047 55.7572 36.1271C55.349 35.7029 54.7564 35.4576 54.1414 35.4576C53.5263 35.4576 52.9337 35.7029 52.5255 36.1271C51.2955 37.4047 49.5287 38.1355 47.6781 38.1355C45.8275 38.1355 44.0607 37.4047 42.8307 36.1271C42.4225 35.7029 41.8299 35.4576 41.2148 35.4576C40.5942 35.4576 40.0072 35.7029 39.599 36.1271C38.369 37.4047 36.6022 38.1355 34.7516 38.1355C31.1901 38.1355 28.2883 35.4831 28.2883 32.2276C28.2883 28.9722 31.1901 26.3198 34.7516 26.3198C36.6022 26.3198 38.369 27.0506 39.599 28.3282C40.0072 28.7524 40.5998 28.9977 41.2148 28.9977C41.8355 28.9977 42.4225 28.7524 42.8307 28.3282C44.0607 27.0506 45.8275 26.3198 47.6781 26.3198C49.5287 26.3198 51.2955 27.0506 52.5255 28.3282C52.9337 28.7524 53.5263 28.9977 54.1414 28.9977C54.7564 28.9977 55.349 28.7524 55.7572 28.3282C56.9928 27.0557 58.7596 26.3198 60.6046 26.3198ZM60.6046 22.3999C58.2564 22.3999 55.992 23.1052 54.1414 24.3828C52.2907 23.1052 50.0263 22.3999 47.6781 22.3999C45.3299 22.3999 43.0655 23.1052 41.2148 24.3828C39.3642 23.1052 37.0998 22.3999 34.7516 22.3999C28.8251 22.3999 24 26.8104 24 32.2276C24 37.6449 28.8251 42.0554 34.7516 42.0554C37.0998 42.0554 39.3642 41.3501 41.2148 40.0725C43.0655 41.3501 45.3299 42.0554 47.6781 42.0554C50.0263 42.0554 52.2907 41.3501 54.1414 40.0725C55.992 41.3501 58.2564 42.0554 60.6046 42.0554C66.5311 42.0554 71.3562 37.6449 71.3562 32.2276C71.3562 26.8104 66.5367 22.3999 60.6046 22.3999Z" fill="white"/>
<path d="M63.825 41.6107C65.7372 44.3193 67.0734 47.9019 67.0734 51.924C67.0734 62.8403 59.7939 67.031 54.1469 68.6408V61.4808C57.2611 60.5967 58.4576 57.8318 58.4576 55.8643C58.4576 54.7757 57.4904 53.8813 56.3051 53.8813C55.1142 53.8813 54.1525 54.7501 54.1525 55.8387C54.1302 56.7484 53.7332 57.8318 52 57.8318C50.2667 57.8318 49.8698 56.7535 49.8474 55.8438C49.8362 54.7655 48.8746 53.8967 47.6949 53.8967C46.504 53.8967 45.5423 54.7808 45.5423 55.8643C45.5423 57.837 46.7332 60.5967 49.853 61.4808V69.4994C48.6509 69.6374 47.8514 69.6476 47.7004 69.6476H34.7572C33.5663 69.6476 32.6046 70.5318 32.6046 71.6152C32.6046 72.7038 33.5663 73.5828 34.7572 73.5828H47.6837C47.9185 73.5828 71.3841 73.3375 71.3841 51.9189C71.3841 51.2391 71.3562 50.585 71.3114 49.9513H73.5423C74.3138 49.9513 75.1972 49.7928 76.0582 49.4811C76.1365 49.4555 76.2148 49.4249 76.2875 49.3942C76.5726 49.2818 76.8522 49.1438 77.1261 48.9905C77.21 48.9445 77.2883 48.8985 77.3666 48.8474C77.6405 48.6787 77.8977 48.4794 78.1437 48.2647C78.1773 48.2341 78.2052 48.2085 78.2388 48.1779C78.5015 47.9377 78.742 47.6668 78.9544 47.3653C79.1725 47.0638 79.357 46.7367 79.5135 46.3738V46.3687C79.6589 46.0263 79.7819 45.6634 79.8602 45.2648C79.8658 45.2495 79.8602 45.2341 79.8658 45.2188C79.9384 44.8457 79.9999 44.4676 79.9999 44.0383C79.9999 43.6039 79.9328 43.2206 79.8658 42.8424C79.8658 42.8321 79.8658 42.8219 79.8602 42.8168C79.7819 42.4182 79.6589 42.0502 79.5135 41.7078V41.7027C79.3626 41.345 79.1781 41.023 78.9656 40.7266C78.96 40.7163 78.9544 40.7061 78.9488 40.701C78.742 40.4199 78.5183 40.1593 78.2723 39.9293C78.2164 39.8782 78.1605 39.8271 78.1046 39.7811C77.8921 39.5971 77.6741 39.4285 77.4392 39.2752C77.3106 39.1934 77.1765 39.1167 77.0423 39.0401C76.841 38.9276 76.6397 38.8305 76.4273 38.7385C76.2763 38.6772 76.1253 38.6159 75.9688 38.5648C75.6781 38.4626 75.3929 38.3859 75.1022 38.3246C75.0351 38.3092 74.9736 38.2939 74.9121 38.2837C74.4368 38.1917 73.9728 38.1304 73.5479 38.1304H69.1142C67.7052 39.8884 66 40.563 63.825 41.6107ZM73.5087 42.0758C74.5039 42.1013 75.6892 42.4591 75.6892 44.0434C75.6892 45.6277 74.5039 45.9905 73.5367 46.011H70.6964C70.3386 44.5698 69.8522 43.2614 69.2651 42.0707L73.5087 42.0758Z" fill="white"/>
<path d="M41.2207 47.9837C41.2207 46.8951 40.2591 46.0007 39.0682 46.0007C37.8773 46.0007 36.9156 46.8695 36.9156 47.9581C36.8933 48.8678 36.4963 49.9512 34.7631 49.9512C33.0299 49.9512 32.6329 48.8729 32.6105 47.9632C32.5993 46.8849 31.6377 46.0161 30.458 46.0161C29.2671 46.0161 28.3054 46.9002 28.3054 47.9837C28.3054 50.3601 30.0275 53.8915 34.7687 53.8915C39.4987 53.8915 41.2207 50.3601 41.2207 47.9837Z" fill="white"/>
</g>
<defs>
<filter id="filter0_d" x="0" y="0" width="96" height="96" filterUnits="userSpaceOnUse" color-interpolation-filters="sRGB">
<feFlood flood-opacity="0" result="BackgroundImageFix"/>
<feColorMatrix in="SourceAlpha" type="matrix" values="0 0 0 0 0 0 0 0 0 0 0 0 0 0 0 0 0 0 127 0"/>
<feOffset/>
<feGaussianBlur stdDeviation="4"/>
<feColorMatrix type="matrix" values="0 0 0 0 0 0 0 0 0 0 0 0 0 0 0 0 0 0 0.3 0"/>
<feBlend mode="normal" in2="BackgroundImageFix" result="effect1_dropShadow"/>
<feBlend mode="normal" in="SourceGraphic" in2="effect1_dropShadow" result="shape"/>
</filter>
</defs>
</svg>
