<svg fill="none" height="40" viewBox="0 0 40 40" width="40" xmlns="http://www.w3.org/2000/svg"><path d="m28.2339 27.4495s5.8471-5.8471 7.8459-7.8418c6.2731-6.2731 3.1356-18.823311 3.1356-18.823311s-12.5503-3.137559-18.8233 3.137561c-4.69 4.68995-7.8153 7.91965-7.8153 7.91965s-7.87047-1.6466-12.5768 3.0597l25.0984 25.0984c4.7063-4.7063 3.1355-12.5502 3.1355-12.5502zm-3.0761-18.40138c.3801-.38071.8315-.68274 1.3284-.88881.4969-.20608 1.0295-.31215 1.5675-.31215.5379 0 1.0706.10607 1.5675.31215.4969.20607.9483.5081 1.3284.88881.5729.57279.9632 1.30268 1.1213 2.09718.1582.7946.0771 1.6183-.2329 2.3668-.3099.7485-.8349 1.3883-1.5086 1.8384-.6736.4502-1.4655.6904-2.2757.6904s-1.6022-.2402-2.2758-.6904c-.6736-.4501-1.1986-1.0899-1.5086-1.8384s-.391-1.5722-.2328-2.3668c.1581-.7945.5483-1.52439 1.1213-2.09718zm-23.16918 28.89948s6.14404 0 10.24008-4.096l-6.14405-6.144c-4.09603 2.048-4.09603 10.24-4.09603 10.24z" fill="#61c680"/></svg>