<svg fill="none" height="40" viewBox="0 0 44 40" width="44" xmlns="http://www.w3.org/2000/svg"><path d="m0 2.20667c.0040261-.58361.235181-1.14219.643528-1.555075.408352-.412888.961112-.64694022 1.538872-.651595h39.6352c1.2056 0 2.1824.988889 2.1824 2.20667v35.58663c-.004.5836-.2352 1.1422-.6435 1.5551-.4084.4129-.9611.6469-1.5389.6516h-39.6352c-.57901-.0006-1.13411-.2333-1.543323-.6471-.409217-.4138-.63907729-.9747-.639077-1.5596zm4.4 2.23777v31.11116h35.2v-31.11116zm4.4 4.44445h13.2v13.33331h-13.2zm4.4 4.44441v4.4445h4.4v-4.4445zm-4.4 13.3334h26.4v4.4444h-26.4zm17.6-17.77781h8.8v4.44441h-8.8zm0 8.88891h8.8v4.4444h-8.8z" fill="#61c680"/></svg>