<svg width="40" height="40" viewBox="0 0 40 40" fill="none" xmlns="http://www.w3.org/2000/svg">
<path d="M19.9999 18.0396C22.6001 18.0396 25.0938 19.0725 26.9324 20.9111C28.7709 22.7497 29.8039 25.2433 29.8039 27.8435V39.6082H25.8823V27.8435C25.8824 26.3431 25.3091 24.8993 24.2798 23.8077C23.2504 22.716 21.8429 22.059 20.345 21.9709L19.9999 21.9611C18.4995 21.9611 17.0558 22.5343 15.9641 23.5637C14.8725 24.593 14.2154 26.0006 14.1274 27.4984L14.1176 27.8435V39.6082H10.196V27.8435C10.196 25.2433 11.2289 22.7497 13.0675 20.9111C14.9061 19.0725 17.3998 18.0396 19.9999 18.0396ZM7.25483 23.9219C7.80189 23.9219 8.33327 23.9866 8.84307 24.1062C8.50782 25.1043 8.30929 26.1431 8.25287 27.1945L8.23523 27.8435V28.0121C8.00984 27.9315 7.77541 27.8788 7.53719 27.8553L7.25483 27.8435C6.52369 27.8435 5.81877 28.1159 5.27754 28.6075C4.73631 29.099 4.39757 29.7746 4.32738 30.5023L4.31366 30.7847V39.6082H0.39209V30.7847C0.39209 28.9646 1.11513 27.219 2.40214 25.932C3.68916 24.645 5.43472 23.9219 7.25483 23.9219ZM32.745 23.9219C34.5651 23.9219 36.3107 24.645 37.5977 25.932C38.8847 27.219 39.6078 28.9646 39.6078 30.7847V39.6082H35.6862V30.7847C35.6862 30.0535 35.4138 29.3486 34.9222 28.8074C34.4307 28.2661 33.7551 27.9274 33.0274 27.8572L32.745 27.8435C32.4019 27.8435 32.0725 27.9023 31.7646 28.0102V27.8435C31.7646 26.5376 31.5529 25.2827 31.1588 24.1102C31.6781 23.9844 32.2107 23.9212 32.745 23.9219ZM7.25483 12.1572C8.55492 12.1572 9.80175 12.6737 10.721 13.593C11.6403 14.5123 12.1568 15.7591 12.1568 17.0592C12.1568 18.3593 11.6403 19.6061 10.721 20.5254C9.80175 21.4447 8.55492 21.9611 7.25483 21.9611C5.95475 21.9611 4.70792 21.4447 3.78863 20.5254C2.86933 19.6061 2.35287 18.3593 2.35287 17.0592C2.35287 15.7591 2.86933 14.5123 3.78863 13.593C4.70792 12.6737 5.95475 12.1572 7.25483 12.1572ZM32.745 12.1572C34.0451 12.1572 35.2919 12.6737 36.2112 13.593C37.1305 14.5123 37.647 15.7591 37.647 17.0592C37.647 18.3593 37.1305 19.6061 36.2112 20.5254C35.2919 21.4447 34.0451 21.9611 32.745 21.9611C31.4449 21.9611 30.1981 21.4447 29.2788 20.5254C28.3595 19.6061 27.8431 18.3593 27.8431 17.0592C27.8431 15.7591 28.3595 14.5123 29.2788 13.593C30.1981 12.6737 31.4449 12.1572 32.745 12.1572ZM7.25483 16.0788C6.99482 16.0788 6.74545 16.1821 6.56159 16.3659C6.37773 16.5498 6.27444 16.7992 6.27444 17.0592C6.27444 17.3192 6.37773 17.5686 6.56159 17.7524C6.74545 17.9363 6.99482 18.0396 7.25483 18.0396C7.51485 18.0396 7.76422 17.9363 7.94808 17.7524C8.13194 17.5686 8.23523 17.3192 8.23523 17.0592C8.23523 16.7992 8.13194 16.5498 7.94808 16.3659C7.76422 16.1821 7.51485 16.0788 7.25483 16.0788ZM32.745 16.0788C32.485 16.0788 32.2356 16.1821 32.0518 16.3659C31.8679 16.5498 31.7646 16.7992 31.7646 17.0592C31.7646 17.3192 31.8679 17.5686 32.0518 17.7524C32.2356 17.9363 32.485 18.0396 32.745 18.0396C33.005 18.0396 33.2544 17.9363 33.4383 17.7524C33.6221 17.5686 33.7254 17.3192 33.7254 17.0592C33.7254 16.7992 33.6221 16.5498 33.4383 16.3659C33.2544 16.1821 33.005 16.0788 32.745 16.0788ZM19.9999 0.392517C22.0801 0.392517 24.075 1.21885 25.5459 2.68972C27.0167 4.16059 27.8431 6.15552 27.8431 8.23565C27.8431 10.3158 27.0167 12.3107 25.5459 13.7816C24.075 15.2525 22.0801 16.0788 19.9999 16.0788C17.9198 16.0788 15.9249 15.2525 14.454 13.7816C12.9831 12.3107 12.1568 10.3158 12.1568 8.23565C12.1568 6.15552 12.9831 4.16059 14.454 2.68972C15.9249 1.21885 17.9198 0.392517 19.9999 0.392517ZM19.9999 4.31409C18.9599 4.31409 17.9624 4.72725 17.227 5.46269C16.4915 6.19812 16.0784 7.19559 16.0784 8.23565C16.0784 9.27572 16.4915 10.2732 17.227 11.0086C17.9624 11.7441 18.9599 12.1572 19.9999 12.1572C21.04 12.1572 22.0375 11.7441 22.7729 11.0086C23.5083 10.2732 23.9215 9.27572 23.9215 8.23565C23.9215 7.19559 23.5083 6.19812 22.7729 5.46269C22.0375 4.72725 21.04 4.31409 19.9999 4.31409Z" fill="#61C680"/>
<path fill-rule="evenodd" clip-rule="evenodd" d="M30.1961 40H25.4902V27.8431C25.4903 26.4427 24.9552 25.0952 23.9945 24.0764C23.0351 23.0589 21.7237 22.4459 20.3279 22.3624L19.9945 22.3529C18.5961 22.3543 17.2508 22.8892 16.2332 23.8486C15.2158 24.808 14.6028 26.1194 14.5193 27.5152L14.5098 27.8487V40H9.80392V27.8431C9.80392 25.139 10.8781 22.5456 12.7903 20.6334C14.7024 18.7213 17.2958 17.6471 20 17.6471C22.7042 17.6471 25.2976 18.7213 27.2097 20.6334C29.1219 22.5456 30.1961 25.139 30.1961 27.8431V40ZM14.1176 27.8431L14.1274 27.498C14.2155 26.0002 14.8725 24.5926 15.9642 23.5633C17.0559 22.534 18.4996 21.9607 20 21.9608L20.3451 21.9706C21.8429 22.0586 23.2505 22.7157 24.2798 23.8073C25.3092 24.899 25.8824 26.3427 25.8824 27.8431V39.6078H29.8039V27.8431C29.8039 25.243 28.771 22.7493 26.9324 20.9107C25.0938 19.0721 22.6002 18.0392 20 18.0392C17.3998 18.0392 14.9062 19.0721 13.0676 20.9107C11.229 22.7493 10.1961 25.243 10.1961 27.8431V39.6078H14.1176V27.8431ZM9.35203 23.8225L9.21488 24.2307C8.89145 25.1936 8.69969 26.1958 8.64481 27.21L8.62745 27.8485V28.5686L8.10317 28.381C7.91137 28.3124 7.71201 28.2671 7.50939 28.2462L7.24704 28.2353C6.6162 28.2373 6.00839 28.4731 5.54127 28.8974C5.07442 29.3214 4.78141 29.9033 4.71868 30.5307L4.70588 30.7938V40H0V30.7843C0 28.8602 0.764353 27.0149 2.12491 25.6543C3.48547 24.2938 5.33078 23.5294 7.2549 23.5294C7.83302 23.5294 8.39444 23.5978 8.93271 23.7241L9.35203 23.8225ZM4.31373 30.7843L4.32745 30.502C4.39764 29.7742 4.73638 29.0987 5.27761 28.6071C5.81884 28.1155 6.52376 27.8432 7.2549 27.8431L7.53725 27.8549C7.64006 27.8651 7.74216 27.8806 7.84314 27.9016C7.97614 27.9291 8.10718 27.9659 8.23529 28.0118V27.8431L8.25294 27.1941C8.30232 26.2738 8.46062 25.363 8.72418 24.4808C8.76171 24.3553 8.80136 24.2303 8.84314 24.1059C8.71548 24.0759 8.58647 24.0494 8.45621 24.0265C8.06624 23.9579 7.66498 23.9216 7.2549 23.9216C5.43479 23.9216 3.68922 24.6446 2.40221 25.9316C1.11519 27.2186 0.392157 28.9642 0.392157 30.7843V39.6078H4.31373V30.7843ZM31.545 24.0283C31.9408 23.9568 32.3424 23.9211 32.7451 23.9216C34.5652 23.9216 36.3108 24.6446 37.5978 25.9316C38.8848 27.2186 39.6078 28.9642 39.6078 30.7843V39.6078H35.6863V30.7843C35.6862 30.0532 35.4139 29.3483 34.9223 28.807C34.4307 28.2658 33.7552 27.9271 33.0275 27.8569L32.7451 27.8431C32.5438 27.8431 32.3472 27.8634 32.1569 27.9019C32.0228 27.929 31.8919 27.9652 31.7647 28.0098V27.8431C31.7647 27.7612 31.7639 27.6795 31.7622 27.598C31.7402 26.5175 31.5731 25.4737 31.2777 24.4846C31.2401 24.3587 31.2005 24.2338 31.1588 24.1098C31.2868 24.0788 31.4156 24.0516 31.545 24.0283ZM32.7359 28.2353C32.4413 28.2363 32.1588 28.2873 31.8944 28.3799L31.3725 28.5627V27.8431C31.3725 26.5799 31.1677 25.3672 30.7871 24.2347L30.6508 23.8293L31.0666 23.7287C31.6163 23.5956 32.18 23.5287 32.7456 23.5294M32.7359 28.2353L32.9987 28.2481C33.6261 28.3108 34.208 28.6038 34.632 29.0707C35.058 29.5397 35.2941 30.1507 35.2941 30.7843V40H40V30.7843C40 28.8602 39.2356 27.0149 37.8751 25.6543C36.5147 24.2939 34.6695 23.5295 32.7456 23.5294M7.2549 11.7647C8.65899 11.7647 10.0056 12.3225 10.9984 13.3153C11.9912 14.3082 12.549 15.6547 12.549 17.0588C12.549 18.4629 11.9912 19.8095 10.9984 20.8023C10.0056 21.7952 8.65899 22.3529 7.2549 22.3529C5.85081 22.3529 4.50423 21.7952 3.5114 20.8023C2.51856 19.8095 1.96078 18.4629 1.96078 17.0588C1.96078 15.6547 2.51856 14.3082 3.5114 13.3153C4.50423 12.3225 5.85081 11.7647 7.2549 11.7647ZM32.7451 11.7647C34.1492 11.7647 35.4958 12.3225 36.4886 13.3153C37.4814 14.3082 38.0392 15.6547 38.0392 17.0588C38.0392 18.4629 37.4814 19.8095 36.4886 20.8023C35.4958 21.7952 34.1492 22.3529 32.7451 22.3529C31.341 22.3529 29.9944 21.7952 29.0016 20.8023C28.0087 19.8095 27.451 18.4629 27.451 17.0588C27.451 15.6547 28.0087 14.3082 29.0016 13.3153C29.9944 12.3225 31.341 11.7647 32.7451 11.7647ZM20 0C22.1841 0 24.2788 0.867645 25.8232 2.41206C27.3676 3.95648 28.2353 6.05116 28.2353 8.23529C28.2353 10.4194 27.3676 12.5141 25.8232 14.0585C24.2788 15.6029 22.1841 16.4706 20 16.4706C17.8159 16.4706 15.7212 15.6029 14.1768 14.0585C12.6323 12.5141 11.7647 10.4194 11.7647 8.23529C11.7647 6.05116 12.6323 3.95648 14.1768 2.41206C15.7212 0.867645 17.8159 0 20 0ZM20 4.70588C19.0639 4.70588 18.1662 5.07773 17.5043 5.73962C16.8424 6.40152 16.4706 7.29924 16.4706 8.23529C16.4706 9.17135 16.8424 10.0691 17.5043 10.731C18.1662 11.3929 19.0639 11.7647 20 11.7647C20.9361 11.7647 21.8338 11.3929 22.4957 10.731C23.1576 10.0691 23.5294 9.17135 23.5294 8.23529C23.5294 7.29924 23.1576 6.40152 22.4957 5.73962C21.8338 5.07773 20.9361 4.70588 20 4.70588ZM10.7211 13.5926C9.80181 12.6733 8.55498 12.1569 7.2549 12.1569C5.95482 12.1569 4.70799 12.6733 3.78869 13.5926C2.8694 14.5119 2.35294 15.7587 2.35294 17.0588C2.35294 18.3589 2.8694 19.6057 3.78869 20.525C4.70799 21.4443 5.95482 21.9608 7.2549 21.9608C8.55498 21.9608 9.80181 21.4443 10.7211 20.525C11.6404 19.6057 12.1569 18.3589 12.1569 17.0588C12.1569 15.7587 11.6404 14.5119 10.7211 13.5926ZM36.2113 13.5926C35.292 12.6733 34.0452 12.1569 32.7451 12.1569C31.445 12.1569 30.1982 12.6733 29.2789 13.5926C28.3596 14.5119 27.8431 15.7587 27.8431 17.0588C27.8431 18.3589 28.3596 19.6057 29.2789 20.525C30.1982 21.4443 31.445 21.9608 32.7451 21.9608C34.0452 21.9608 35.292 21.4443 36.2113 20.525C37.1306 19.6057 37.6471 18.3589 37.6471 17.0588C37.6471 15.7587 37.1306 14.5119 36.2113 13.5926ZM25.5459 2.68936C24.0751 1.21849 22.0801 0.392157 20 0.392157C17.9199 0.392157 15.9249 1.21849 14.4541 2.68936C12.9832 4.16023 12.1569 6.15516 12.1569 8.23529C12.1569 10.3154 12.9832 12.3104 14.4541 13.7812C15.9249 15.2521 17.9199 16.0784 20 16.0784C22.0801 16.0784 24.0751 15.2521 25.5459 13.7812C27.0168 12.3104 27.8431 10.3154 27.8431 8.23529C27.8431 6.15516 27.0168 4.16023 25.5459 2.68936ZM17.227 5.46233C17.9625 4.72689 18.9599 4.31373 20 4.31373C21.0401 4.31373 22.0375 4.72689 22.773 5.46233C23.5084 6.19776 23.9216 7.19523 23.9216 8.23529C23.9216 9.27536 23.5084 10.2728 22.773 11.0083C22.0375 11.7437 21.0401 12.1569 20 12.1569C18.9599 12.1569 17.9625 11.7437 17.227 11.0083C16.4916 10.2728 16.0784 9.27536 16.0784 8.23529C16.0784 7.19523 16.4916 6.19776 17.227 5.46233Z" fill="#61C680"/>
</svg>
