<svg fill="none" height="40" viewBox="0 0 44 40" width="44" xmlns="http://www.w3.org/2000/svg"><g fill="#61c680"><path d="m28.7209 29.9673c0 .352-.1402.6896-.3898.9385s-.5881.3887-.9411.3887h-18.63264c-.2928 0-.57229.2654-.81185.438l-4.51176 3.5436v-21.235c0-.352.14022-.6896.38982-.9385.24959-.2489.58811-.3887.94109-.3887h5.13728v-2.6544h-5.13728c-1.05894 0-2.0745.4195-2.82327 1.1662-.74878.7467-1.169439 1.7594-1.169439 2.8154v23.8893c.001981.2465.072756.4876.204395.6962.131634.2086.318934.3766.540914.485.21384.097.44962.1358.68338.1125s.45716-.1079.64752-.2452l6.85414-5.03h17.8873c.5044.0148 1.0066-.0737 1.4753-.2602s.894-.467 1.2496-.8241.6338-.7832.8176-1.2519c.1837-.4686.269-.97.2506-1.4729v-1.4997h-2.6618z"/><path clip-rule="evenodd" d="m7.48031 31.1184.01304-.0094c.00984-.0071.0308-.0231.05899-.0446.08866-.0677.24887-.19.3599-.2615.17488-.1127.4727-.2776.84512-.2776h18.63264c.1481 0 .2902-.0587.3951-.1633.1048-.1046.1639-.2465.1639-.3947v-2.0964h4.2056v2.2556c.0201.6031-.0831 1.204-.3035 1.7662-.2222.5667-.5587 1.0819-.9887 1.5137s-.9444.7711-1.5113.9966c-.5632.2242-1.1663.3313-1.7724.3151h-17.62283l-6.65512 4.884c-.30076.2169-.65381.3506-1.02325.3874s-.74206-.0245-1.07999-.1777l-.02021-.0092c-.350756-.1714-.646509-.437-.854436-.7666-.207924-.3295-.31968658-.7102-.32281454-1.0994l-.00004946-.0062.00002473-23.8893c0-1.2598.50185527-2.4682 1.39533527-3.3592.8935-.89096 2.10546-1.39162 3.3693-1.39162h5.90924v4.19282h-5.90924c-.14808 0-.2902.0587-.39507.1632-.10489.1046-.16391.2466-.16391.3948v19.6492zm-4.04656 4.1577v-21.235c0-.352.14022-.6896.38982-.9385.24959-.2489.58811-.3887.94109-.3887h5.13728v-2.6544h-5.13728c-1.05894 0-2.0745.4195-2.82327 1.1662-.74878.7467-1.169439 1.7594-1.169439 2.8154v23.8893c.001981.2465.072756.4876.204395.6962.131634.2086.318934.3766.540914.485.21384.097.44962.1358.68338.1125s.45716-.1079.64752-.2452l6.85414-5.03h17.8873c.5044.0148 1.0066-.0737 1.4753-.2602s.894-.467 1.2496-.8241.6338-.7832.8176-1.2519c.1837-.4686.269-.97.2506-1.4729v-1.4997h-2.6618v1.3272c0 .352-.1402.6896-.3898.9385s-.5881.3887-.9411.3887h-18.63264c-.23887 0-.46888.1767-.67558.3354-.04666.0359-.09214.0708-.13627.1026z" fill-rule="evenodd"/><path d="m39.3685.769138h-22.6254c-1.0589 0-2.0745.419482-2.8232 1.166172-.7488.74669-1.1695 1.75941-1.1695 2.81539v15.9262c0 1.056.4207 2.0687 1.1695 2.8154.7487.7467 1.7643 1.1662 2.8232 1.1662h18.0337l6.3618 4.9238c.1891.1395.4119.2264.6457.2521.2337.0256.4702-.011.6852-.1061.2264-.1075.4178-.2767.552-.4881.1343-.2113.2059-.4562.2066-.7063v-23.7832c.0005-1.03338-.4018-2.0265-1.122-2.76949-.7203-.74298-1.7019-1.177626-2.7376-1.212072zm1.3309 25.136862-4.6582-3.6232c-.2323-.1798-.5178-.2778-.8118-.2787h-18.4863c-.3529 0-.6915-.1398-.9411-.3887s-.3898-.5865-.3898-.9385v-15.9262c0-.352.1402-.68957.3898-.93847.2496-.24889.5882-.38872.9411-.38872h22.6254c.3557.0322.6874.193.9325.45211.2452.25912.3868.59867.3984.95471z"/><path clip-rule="evenodd" d="m41.1386 29.5823-6.3618-4.9238h-18.0337c-1.0589 0-2.0745-.4195-2.8232-1.1662-.7488-.7467-1.1695-1.7594-1.1695-2.8154v-15.9262c0-1.05598.4207-2.0687 1.1695-2.81539.7487-.74669 1.7643-1.166172 2.8232-1.166172h22.6254c1.0357.034446 2.0173.469092 2.7376 1.212072.7202.74299 1.1225 1.73611 1.122 2.76949v23.7832c-.0007.2501-.0723.495-.2066.7063-.1342.2114-.3256.3806-.552.4881-.215.0951-.4515.1317-.6852.1061-.2338-.0257-.4566-.1126-.6457-.2521zm2.8614-24.83118c.0007-1.23285-.4793-2.41778-1.3387-3.30434-.8595-.886587-2.031-1.4053326-3.2671-1.44644349l-.0257.76880149v-.76922955h-22.6254c-1.2638 0-2.4758.50065955-3.3693 1.39166155-.8935.89099-1.3953 2.09931-1.3953 3.35913v15.9262c0 1.2598.5018 2.4682 1.3953 3.3592s2.1055 1.3916 3.3693 1.3916h17.7692l6.1528 4.7622.0143.0108c.2988.2203.6509.3578 1.0204.3983s.7431-.0173 1.0829-.1676l.0189-.0087c.3579-.1699.6602-.4373.8722-.7711s.3251-.7205.3262-1.1156zm-8.7706 17.25298c.294.0009.5795.0989.8118.2787l4.6582 3.6232v-21.07567c-.0116-.35604-.1532-.69559-.3984-.95471-.2451-.25911-.5768-.41991-.9325-.45211h-22.6254c-.3529 0-.6915.13983-.9411.38872-.2496.2489-.3898.58647-.3898.93847v15.9262c0 .352.1402.6896.3898.9385s.5882.3887.9411.3887zm4.0976-17.81136h-22.5839c-.148 0-.2902.05865-.395.16323-.1049.1046-.164.24657-.164.39473v15.9262c0 .1482.0591.2902.164.3948.1048.1045.247.1632.395.1632h18.4887c.4647.0014.9158.1563 1.2829.4404l3.4127 2.6545v-19.48477c-.0077-.1649-.0744-.32164-.1881-.44174-.1093-.11563-.2551-.18977-.4123-.21055z" fill-rule="evenodd"/></g></svg>