<svg width="40" height="40" viewBox="0 0 40 40" fill="none" xmlns="http://www.w3.org/2000/svg">
<path fill-rule="evenodd" clip-rule="evenodd" d="M1.1097 19.4397C1.1097 22.2189 1.69291 24.8619 2.74362 27.253L0.078061 37.2009C-0.364585 38.8529 1.14708 40.3646 2.79906 39.9219L12.7556 37.2541C15.1416 38.2994 17.7778 38.8795 20.5494 38.8795C31.2857 38.8795 39.9892 30.176 39.9892 19.4397C39.9892 8.70346 31.2857 0 20.5494 0C9.81317 0 1.1097 8.70346 1.1097 19.4397ZM20.5494 34.4361C28.8317 34.4361 35.5458 27.722 35.5458 19.4397C35.5458 11.1575 28.8317 4.44337 20.5494 4.44337C12.2672 4.44337 5.55307 11.1575 5.55307 19.4397C5.55307 19.8874 5.57268 20.3305 5.6111 20.7681C5.80463 22.973 6.47532 25.041 7.51928 26.8683L5.19765 34.792L13.1216 32.4703C14.9524 33.5161 17.0249 34.1873 19.2345 34.3792C19.6678 34.4169 20.1064 34.4361 20.5494 34.4361Z" fill="#61C680"/>
<path d="M22.7711 19.4397C22.7711 20.6667 21.7764 21.6614 20.5494 21.6614C19.3224 21.6614 18.3278 20.6667 18.3278 19.4397C18.3278 18.2127 19.3224 17.218 20.5494 17.218C21.7764 17.218 22.7711 18.2127 22.7711 19.4397Z" fill="#61C680"/>
<path d="M14.4398 19.4397C14.4398 20.6667 13.4451 21.6614 12.2181 21.6614C10.9911 21.6614 9.99644 20.6667 9.99644 19.4397C9.99644 18.2127 10.9911 17.218 12.2181 17.218C13.4451 17.218 14.4398 18.2127 14.4398 19.4397Z" fill="#61C680"/>
<path d="M31.1024 19.4397C31.1024 20.6667 30.1078 21.6614 28.8808 21.6614C27.6538 21.6614 26.6591 20.6667 26.6591 19.4397C26.6591 18.2127 27.6538 17.218 28.8808 17.218C30.1078 17.218 31.1024 18.2127 31.1024 19.4397Z" fill="#61C680"/>
</svg>
