<svg fill="none" height="54" viewBox="0 0 54 54" width="54" xmlns="http://www.w3.org/2000/svg"><circle cx="27" cy="27" fill="#ffe812" r="27"/><path d="m27.1474 16c-7.2612 0-13.1474 4.6412-13.1474 10.3662 0 3.7013 2.4609 6.9491 6.1626 8.7831-.2014.6945-1.2941 4.468-1.3377 4.7645 0 0-.0261.2227.1181.3077.1443.0849.3139.0189.3139.0189.4136-.0577 4.7966-3.1365 5.5553-3.6711.7579.1073 1.5383.1631 2.3352.1631 7.2611 0 13.1473-4.641 13.1473-10.3662 0-5.725-5.8862-10.3662-13.1473-10.3662z" fill="#381f1f"/><path clip-rule="evenodd" d="m19.8785 29.9845c-.4184 0-.7585-.3249-.7585-.7244v-4.5061h-1.1836c-.4104 0-.7443-.3333-.7443-.7427 0-.4095.334-.7427.7443-.7427h3.8841c.4104 0 .7443.3332.7443.7427 0 .4094-.3339.7427-.7443.7427h-1.1835v4.5061c0 .3995-.3402.7244-.7585.7244zm6.651-.0098c-.3163 0-.5582-.1285-.6312-.335l-.3756-.9833-2.3129-.0002-.3758.984c-.0727.2061-.3146.3345-.6308.3345-.1664.0001-.3309-.0356-.4822-.1047-.2091-.0965-.4101-.3617-.1798-1.0771l1.8143-4.7755c.1279-.3632.5161-.7374 1.0102-.7487.4954.0112.8836.3855 1.0117.7494l1.8136 4.7734c.2308.717.0298.9824-.1793 1.0786-.1514.069-.3158.1047-.4822.1046zm-2.1633-4.8141.7577 2.1522h-1.5153zm4.0454 4.7133c-.4009 0-.7269-.312-.7269-.6953v-5.1515c0-.4183.3474-.7585.7743-.7585s.7743.3402.7743.7585v4.4562h1.6118c.4009 0 .727.312.727.6953s-.3261.6953-.727.6953zm3.4555-.6577c0 .4183.3401.7585.7585.7585.2011-.0004.394-.0804.5362-.2226.1423-.1423.2223-.3351.2225-.5364v-1.6549l.2632-.2632 1.7789 2.3569c.0704.0941.1619.1704.2671.2228.1052.0523.2212.0793.3387.0788.1649.0003.3252-.0534.4563-.1532.0797-.0597.1468-.1346.1973-.2205s.0835-.181.097-.2796c.0142-.0987.0086-.1991-.0165-.2956-.0249-.0965-.0688-.187-.1291-.2664l-1.8671-2.4734 1.7285-1.7283c.1188-.1189.1784-.283.1674-.4618-.0109-.1774-.0901-.3481-.223-.4809-.1425-.1423-.3326-.224-.522-.224-.1623 0-.3119.0599-.4207.1688l-2.1162 2.1162v-1.6303c0-.4183-.3402-.7585-.7585-.7585-.4184 0-.7585.3402-.7585.7585z" fill="#ffe812" fill-rule="evenodd"/></svg>