<svg fill="none" height="19" viewBox="0 0 18 19" width="18" xmlns="http://www.w3.org/2000/svg"><g fill="#ccc"><path clip-rule="evenodd" d="m9.24949 15.5c3.72791 0 6.75001-3.0221 6.75001-6.75 0-3.72792-3.0221-6.75-6.75001-6.75-3.72792 0-6.75 3.02208-6.75 6.75 0 .20149.00883.40092.02612.59793.08711.99247.38899 1.92327.85889 2.74577l-1.04499 3.5665 3.56662-1.045c.82407.4707 1.75691.7728 2.75151.8592.19502.017.39243.0256.59185.0256zm-8.750003-6.75c0 1.2509.262507 2.4406.735443 3.5168l-1.199794 4.4777c-.199239.7436.481175 1.424 1.224744 1.2247l4.48155-1.2008c1.07393.4705 2.26051.7316 3.50806.7316 4.83251 0 8.75001-3.9175 8.75001-8.75 0-4.83249-3.9175-8.75-8.75001-8.75-4.83249 0-8.750003 3.91751-8.750003 8.75z" fill-rule="evenodd"/><circle cx="9.24949" cy="8.75" r="1"/><circle cx="5.49949" cy="8.75" r="1"/><circle cx="12.9995" cy="8.75" r="1"/></g></svg>