<svg fill="none" height="18" viewBox="0 0 20 18" width="20" xmlns="http://www.w3.org/2000/svg"><g fill="#ccc"><path d="m13.055 13.4853c0 .1584-.0638.3103-.1772.4223-.1135.112-.2674.175-.4278.175h-8.46938c-.13309 0-.26013.1194-.36902.197l-2.0508 1.5947v-9.55578c0-.15839.06373-.3103.17719-.4223.11345-.11201.26732-.17493.42776-.17493h2.33513v-1.19447h-2.33513c-.48133 0-.94295.18877-1.283301.52478-.340354.33601-.531562.79173-.531562 1.26692v10.75018c.0009.1109.033071.2194.092907.3133.059835.0939.144972.1695.245868.2183.097203.0436.204376.0611.310628.0506.10625-.0105.2078-.0486.29433-.1104l3.11552-2.2635h8.13056c.2293.0067.4576-.0331.6706-.1171.2131-.0839.4064-.2101.568-.3708s.2881-.3524.3717-.5633c.0835-.2109.1222-.4365.1139-.6628v-.6749h-1.2099z"/><path clip-rule="evenodd" d="m3.40014 14.0033.00593-.0042c.00447-.0032.014-.0104.02681-.0201.0403-.0304.11312-.0855.16359-.1177.07949-.0507.21487-.1249.38415-.1249h8.46938c.0673 0 .1319-.0264.1796-.0734.0476-.0471.0745-.111.0745-.1777v-.9434h1.9116v1.0151c.0092.2714-.0378.5418-.1379.7947-.101.2551-.254.4869-.4494.6812-.1955.1944-.4293.347-.687.4485-.256.1009-.5301.1491-.8056.1418h-8.0104l-3.02506 2.1978c-.13671.0976-.29719.1577-.46511.1743-.167928.0166-.337301-.011-.490905-.08l-.009189-.0041c-.159434-.0771-.293867-.1966-.38838-.3449-.0945104-.1483-.14531172-.3196-.14673352-.4948l-.00002248-.0028.00001124-10.75018c0-.56691.22811576-1.11066.63424376-1.5116.406135-.40095.957025-.62625 1.531495-.62625h2.68601v1.88677h-2.68601c-.0673 0-.1319.0264-.17957.07346-.04768.04706-.07451.11095-.07451.17762v8.84218zm-1.83934 1.871v-9.55578c0-.15839.06373-.3103.17719-.4223.11345-.11201.26732-.17493.42776-.17493h2.33513v-1.19447h-2.33513c-.48133 0-.94295.18877-1.283301.52478-.340354.33601-.531562.79173-.531562 1.26692v10.75018c.0009.1109.033071.2194.092907.3133.059835.0939.144972.1695.245868.2183.097203.0436.204376.0611.310628.0506.10625-.0105.2078-.0486.29433-.1104l3.11552-2.2635h8.13056c.2293.0067.4576-.0331.6706-.1171.2131-.0839.4064-.2101.568-.3708s.2881-.3524.3717-.5633c.0835-.2109.1222-.4365.1139-.6628v-.6749h-1.2099v.5972c0 .1584-.0638.3103-.1772.4223-.1135.112-.2674.175-.4278.175h-8.46938c-.10858 0-.21313.0795-.30708.1509-.02121.0161-.04189.0318-.06194.0461z" fill-rule="evenodd"/><path d="m17.8948.346153h-10.28429c-.48133 0-.94295.188768-1.2833.524777-.34036.33601-.53156.79174-.53156 1.26692v7.16681c0 .47519.1912.93094.53156 1.26694.34035.336.80197.5248 1.2833.5248h8.19719l2.8916 2.2157c.086.0627.1873.1019.2935.1134.1063.0116.2138-.0049.3115-.0477.1029-.0484.1899-.1246.2509-.2197.0611-.0951.0936-.2052.0939-.3178v-10.70245c.0003-.46502-.1826-.91192-.51-1.246263-.3274-.334344-.7736-.529933-1.2443-.545434zm.6049 11.311647-2.1173-1.6305c-.1056-.0809-.2354-.125-.3691-.12541h-8.40279c-.16044 0-.31431-.06292-.42777-.17492-.11345-.11201-.17718-.26392-.17718-.42231v-7.16681c0-.15839.06373-.3103.17718-.4223.11346-.11201.26733-.17493.42777-.17493h10.28429c.1617.01449.3124.08685.4239.20345.1114.1166.1758.2694.181.42962z"/><path clip-rule="evenodd" d="m18.6993 13.3121-2.8916-2.2157h-8.19719c-.48133 0-.94295-.1888-1.2833-.5248-.34036-.336-.53156-.79175-.53156-1.26694v-7.16681c0-.47518.1912-.93091.53156-1.26692.34035-.336009.80197-.524777 1.2833-.524777h10.28429c.4707.015501.9169.21109 1.2443.545434.3274.334343.5103.781243.51 1.246263v10.70245c-.0003.1126-.0328.2227-.0939.3178-.061.0951-.148.1713-.2509.2197-.0977.0428-.2052.0593-.3115.0477-.1062-.0115-.2075-.0507-.2935-.1134zm1.3007-11.17405c.0003-.55479-.2179-1.08801-.6085-1.48696-.3907-.398962-.9232-.6323975-1.485-.65089737l-.0117.34596037v-.346153h-10.28429c-.57447 0-1.12536.225297-1.5315.626249-.40612.400941-.63424.944691-.63424 1.511601v7.16681c0 .56691.22812 1.11064.63424 1.51164.40614.4009.95703.6262 1.5315.6262h8.07689l2.7967 2.143.0066.0049c.1358.0991.2958.161.4638.1792.1679.0182.3377-.0078.4922-.0754l.0086-.0039c.1626-.0765.3001-.1968.3964-.347.0964-.1503.1478-.3243.1483-.502zm-3.9867 7.76384c.1337.00041.2635.04451.3691.12541l2.1173 1.6305v-9.48411c-.0052-.16022-.0696-.31302-.181-.42962-.1115-.1166-.2622-.18896-.4239-.20345h-10.28429c-.16044 0-.31431.06292-.42777.17493-.11345.112-.17718.26391-.17718.4223v7.16681c0 .15839.06373.3103.17718.42231.11346.112.26733.17492.42777.17492zm1.8626-8.01512h-10.26539c-.0673 0-.1319.0264-.17957.07346-.04768.04707-.07451.11096-.07451.17762v7.16681c0 .06667.02683.13056.07451.17763.04767.04705.11227.07345.17957.07345h8.40389c.2113.00065.4163.07035.5832.19818l1.5512 1.19458v-8.7682c-.0035-.0742-.0338-.14473-.0855-.19878-.0497-.05203-.1159-.0854-.1874-.09475z" fill-rule="evenodd"/></g></svg>