<svg fill="none" height="18" viewBox="0 0 18 18" width="18" xmlns="http://www.w3.org/2000/svg"><path d="m16.2 16.1696v-9.94628l-7.2-4.39292-7.2 4.39292v9.94628h3.6v-2.5168c0-.9709.37928-1.902 1.05441-2.5885.67514-.6865 1.59081-1.07222 2.54559-1.07222s1.8705.38572 2.5456 1.07222 1.0544 1.6176 1.0544 2.5885v2.5168zm-5.4 1.8304v-4.3472c0-.4854-.1896-.951-.5272-1.2942-.33757-.3433-.79541-.5361-1.2728-.5361s-.93523.1928-1.27279.5361c-.33757.3432-.52721.8088-.52721 1.2942v4.3472h-5.4c-.47739 0-.935227-.1928-1.272792-.5361-.337566-.3433-.527208-.8088-.527208-1.2943v-9.94628c-.00000299-.31608.0804876-.62678.233634-.90183.153146-.27506.373728-.5051.640266-.66772l7.2-4.392923c.27975-.1706845.59986-.260847.9261-.260847s.64635.0901625.9261.260847l7.2 4.392923c.2665.16262.4871.39266.6403.66772.1531.27505.2336.58575.2336.90183v9.94628c0 .4855-.1896.951-.5272 1.2943s-.7954.5361-1.2728.5361z" fill="#ccc"/></svg>