<svg fill="none" height="18" viewBox="0 0 18 18" width="18" xmlns="http://www.w3.org/2000/svg"><g fill="#ccc"><path d="m9 8.11793c1.1701 0 2.2922.46481 3.1196 1.29218.8274.82739 1.2922 1.94949 1.2922 3.11959v5.2941h-1.7647v-5.2941c0-.6752-.258-1.3249-.7212-1.8161-.4632-.4913-1.09659-.78694-1.77061-.82655l-.15529-.00441c-.67519-.00004-1.32487.25796-1.81612.72116-.49124.4632-.78692 1.0966-.82653 1.7706l-.00441.1553v5.2941h-1.76471v-5.2941c0-1.1701.46481-2.2922 1.29218-3.11959.82736-.82737 1.94951-1.29218 3.11959-1.29218zm-5.7353 2.64707c.24618 0 .4853.0291.71471.0829-.15086.4492-.2402.9166-.26559 1.3897l-.00794.2921v.0759c-.10142-.0363-.20692-.06-.31412-.0706l-.12706-.0053c-.32901 0-.64622.1226-.88978.3438-.24355.2212-.39598.5252-.42757.8527l-.00618.127v3.9706h-1.764702v-3.9706c0-.819.325367-1.6045.904522-2.1837.57916-.5791 1.36466-.9045 2.18371-.9045zm11.4706 0c.819 0 1.6045.3254 2.1837.9045.5792.5792.9045 1.3647.9045 2.1837v3.9706h-1.7647v-3.9706c0-.329-.1226-.6462-.3438-.8898-.2212-.2435-.5252-.3959-.8527-.4275l-.127-.0062c-.1544 0-.3027.0265-.4412.075v-.075c0-.5877-.0953-1.1524-.2726-1.68.2337-.0566.4733-.085.7138-.0847zm-11.4706-5.29413c.58504 0 1.14611.23241 1.5598.64609.41368.41369.64608.97476.64608 1.5598 0 .58503-.2324 1.14611-.64608 1.55979-.41369.41368-.97476.64609-1.5598.64609-.58503 0-1.14611-.23241-1.55979-.64609s-.64609-.97476-.64609-1.55979c0-.58504.23241-1.14611.64609-1.5598.41368-.41368.97476-.64609 1.55979-.64609zm11.4706 0c.585 0 1.1461.23241 1.5598.64609.4137.41369.6461.97476.6461 1.5598 0 .58503-.2324 1.14611-.6461 1.55979s-.9748.64609-1.5598.64609-1.1461-.23241-1.5598-.64609-.6461-.97476-.6461-1.55979c0-.58504.2324-1.14611.6461-1.5598.4137-.41368.9748-.64609 1.5598-.64609zm-11.4706 1.76471c-.117 0-.22922.04648-.31196.12922-.08273.08273-.12921.19495-.12921.31196 0 .117.04648.22922.12921.31196.08274.08273.19496.12921.31196.12921.11701 0 .22922-.04648.31196-.12921.08274-.08274.12922-.19496.12922-.31196 0-.11701-.04648-.22923-.12922-.31196-.08274-.08274-.19495-.12922-.31196-.12922zm11.4706 0c-.117 0-.2292.04648-.312.12922-.0827.08273-.1292.19495-.1292.31196 0 .117.0465.22922.1292.31196.0828.08273.195.12921.312.12921s.2292-.04648.3119-.12921c.0828-.08274.1293-.19496.1293-.31196 0-.11701-.0465-.22923-.1293-.31196-.0827-.08274-.1949-.12922-.3119-.12922zm-5.7353-7.058822c.93605 0 1.8338.371848 2.4957 1.033742.6619.66189 1.0337 1.55961 1.0337 2.49567s-.3718 1.83378-1.0337 2.49567-1.55965 1.03374-2.4957 1.03374c-.93606 0-1.83378-.37185-2.49567-1.03374-.6619-.66189-1.03375-1.55961-1.03375-2.49567s.37185-1.83378 1.03375-2.49567c.66189-.661894 1.55961-1.033742 2.49567-1.033742zm0 1.764702c-.46803 0-.91689.18593-1.24784.51687-.33095.33095-.51687.77981-.51687 1.24784s.18592.91689.51687 1.24783c.33095.33095.77981.51687 1.24784.51687s.91688-.18592 1.2478-.51687c.331-.33094.5169-.7798.5169-1.24783s-.1859-.91689-.5169-1.24784c-.33092-.33094-.77977-.51687-1.2478-.51687z"/><path clip-rule="evenodd" d="m13.5882 18h-2.1176v-5.4706c0-.6302-.2408-1.2365-.6731-1.695-.4317-.4579-1.02182-.7337-1.64993-.7713l-.15006-.0043c-.62928.0006-1.23466.2413-1.69256.6731-.45786.4317-.73369 1.0218-.77128 1.6499l-.00426.1501v5.4681h-2.11765v-5.4706c0-1.2169.48341-2.3839 1.34387-3.24436s2.02749-1.34386 3.24437-1.34386c1.2169 0 2.3839.4834 3.2444 1.34386.8604.86046 1.3438 2.02746 1.3438 3.24436zm-7.23526-5.4706.00441-.1553c.03961-.674.33529-1.3074.82654-1.7706.49124-.4632 1.14092-.72119 1.81611-.72115l.15529.00441c.67403.03961 1.30741.33534 1.77061.82654s.7212 1.1409.7212 1.8161v5.2941h1.7647v-5.2941c0-1.1701-.4648-2.2922-1.2922-3.11958-.8274-.82736-1.9495-1.29217-3.1196-1.29217-1.17007 0-2.29222.46481-3.11959 1.29217-.82737.82738-1.29218 1.94948-1.29218 3.11958v5.2941h1.76471zm-2.14453-1.8093-.06171.1837c-.14555.4333-.23184.8843-.25654 1.3407l-.00781.2873v.3241l-.23592-.0845c-.08631-.0308-.17603-.0512-.2672-.0606l-.11806-.0049c-.28388.0009-.55739.107-.7676.2979-.21008.1908-.34194.4527-.37017.735l-.00575.1184v4.1428h-2.11765v-4.1471c0-.8658.343959-1.6962.95621-2.3085.61225-.6122 1.44264-.9562 2.3085-.9562.26015 0 .51279.0308.75501.0876zm-2.26723 3.1328.00617-.127c.03159-.3275.18402-.6315.42757-.8527.24356-.2212.56077-.3438.88979-.3438l.12705.0053c.04627.0046.09221.0116.13765.021.05985.0124.11882.029.17647.0496v-.0759l.00794-.292c.02222-.4142.09346-.824.21206-1.221.01689-.0565.03473-.1128.05353-.1688-.05744-.0134-.1155-.0254-.17412-.0357-.17548-.0308-.35605-.0472-.54058-.0472-.81906 0-1.60456.3254-2.18372.9045-.579153.5792-.904519 1.3647-.904519 2.1837v3.9706h1.764709zm12.25412-3.0402c.1781-.0321.3588-.0482.54-.048.819 0 1.6045.3254 2.1837.9045.5792.5792.9045 1.3647.9045 2.1837v3.9706h-1.7647v-3.9706c0-.329-.1226-.6462-.3438-.8897-.2212-.2436-.5252-.396-.8526-.4276l-.1271-.0062c-.0906 0-.1791.0091-.2647.0265-.0603.0122-.1192.0285-.1765.0485v-.075c0-.0369-.0004-.0736-.0011-.1103-.0099-.4862-.0851-.9559-.218-1.401-.0169-.0567-.0348-.1129-.0535-.1687.0576-.0139.1155-.0262.1738-.0367zm.5359 1.8932c-.1326.0005-.2597.0234-.3787.0651l-.2349.0822v-.3238c0-.5684-.0921-1.1142-.2634-1.6238l-.0613-.1824.187-.0453c.2474-.0599.5011-.09.7556-.0897m-.0043 2.1177.1182.0057c.2823.0283.5442.1601.735.3702.1917.2111.2979.486.298.7711v4.1471h2.1176v-4.1471c0-.8658-.344-1.6962-.9562-2.3085-.6122-.6122-1.4425-.9561-2.3083-.9562m-11.47079-5.29408c.63183 0 1.2378.25099 1.68457.69777.44678.44678.69778 1.05274.69778 1.68458s-.251 1.2378-.69778 1.68458c-.44677.44678-1.05274.69775-1.68457.69775-.63184 0-1.2378-.25097-1.68458-.69775s-.697777-1.05274-.697777-1.68458.250997-1.2378.697777-1.68458 1.05274-.69777 1.68458-.69777zm11.47059 0c.6318 0 1.2378.25099 1.6846.69777.4467.44678.6977 1.05274.6977 1.68458s-.251 1.2378-.6977 1.68458c-.4468.44678-1.0528.69775-1.6846.69775s-1.2378-.25097-1.6846-.69775-.6978-1.05274-.6978-1.68458.251-1.2378.6978-1.68458 1.0528-.69777 1.6846-.69777zm-5.7353-5.29412c.98286 0 1.9255.39044 2.6205 1.08543.6949.69499 1.0854 1.63759 1.0854 2.62045s-.3905 1.92547-1.0854 2.62046c-.695.69498-1.63764 1.08542-2.6205 1.08542s-1.92547-.39044-2.62046-1.08542c-.69498-.69499-1.08542-1.6376-1.08542-2.62046s.39044-1.92546 1.08542-2.62045c.69499-.69499 1.6376-1.08543 2.62046-1.08543zm0 2.11765c-.42123 0-.8252.16733-1.12305.46518s-.46519.70183-.46519 1.12305c0 .42123.16734.8252.46519 1.12305.29785.29786.70182.46519 1.12305.46519s.8252-.16733 1.1231-.46519c.2978-.29785.4651-.70182.4651-1.12305 0-.42122-.1673-.8252-.4651-1.12305-.2979-.29785-.70187-.46518-1.1231-.46518zm-4.1755 3.99903c-.41368-.41369-.97476-.64609-1.55979-.64609-.58504 0-1.14612.2324-1.5598.64609-.41368.41368-.64609.97475-.64609 1.55979s.23241 1.14611.64609 1.55979c.41368.41369.97476.64609 1.5598.64609.58503 0 1.14611-.2324 1.55979-.64609.41368-.41368.64609-.97475.64609-1.55979s-.23241-1.14611-.64609-1.55979zm11.4706 0c-.4137-.41369-.9748-.64609-1.5598-.64609s-1.1461.2324-1.5598.64609c-.4137.41368-.6461.97475-.6461 1.55979s.2324 1.14611.6461 1.55979c.4137.41369.9748.64609 1.5598.64609s1.1461-.2324 1.5598-.64609c.4137-.41368.6461-.97475.6461-1.55979s-.2324-1.14611-.6461-1.55979zm-4.7994-4.90647c-.6619-.661892-1.55964-1.033739-2.4957-1.033739s-1.83378.371847-2.49567 1.033739c-.66189.66189-1.03374 1.55961-1.03374 2.49567s.37185 1.83378 1.03374 2.49567c.66189.6619 1.55961 1.03374 2.49567 1.03374s1.8338-.37184 2.4957-1.03374c.6619-.66189 1.0337-1.55961 1.0337-2.49567s-.3718-1.83378-1.0337-2.49567zm-3.74354 1.24784c.33095-.33095.77981-.51687 1.24784-.51687s.91689.18592 1.2478.51687c.331.33094.5169.7798.5169 1.24783s-.1859.91689-.5169 1.24784c-.33091.33094-.77977.51687-1.2478.51687s-.91689-.18593-1.24784-.51687c-.33094-.33095-.51687-.77981-.51687-1.24784s.18593-.91689.51687-1.24783z" fill-rule="evenodd"/></g></svg>