<svg width="8" height="8" viewBox="0 0 8 8" fill="none" xmlns="http://www.w3.org/2000/svg">
<path d="M0.170082 3.60807C0.345613 3.49098 0.582797 3.5384 0.69981 3.71393L0.711167 3.73097C0.849341 1.84382 2.4288 0.350586 4.3506 0.350586C6.36289 0.350611 8 1.98772 8 4.00001C8 6.01229 6.36289 7.6494 4.3506 7.6494C4.06932 7.6494 3.8413 7.42139 3.8413 7.1401C3.8413 6.85881 4.06932 6.63079 4.3506 6.63079C5.80123 6.63077 6.98139 5.45061 6.98139 4.00001C6.98139 2.54941 5.80123 1.36922 4.3506 1.36922C3.00609 1.36922 1.8941 2.38312 1.73861 3.68645C1.86118 3.53389 2.08204 3.49745 2.24792 3.60807C2.42345 3.72511 2.47084 3.96229 2.3538 4.1378L1.59743 5.27205C1.50818 5.40589 1.36295 5.4858 1.20896 5.4858C1.05497 5.4858 0.90977 5.40587 0.820566 5.27205L0.0641975 4.1378C-0.0528145 3.96227 -0.0054245 3.72511 0.170082 3.60807Z" fill="#888888"/>
</svg>
